<?xml version="1.0" encoding="UTF-8" standalone="no"?>
<!-- Created with Inkscape (http://www.inkscape.org/) -->

<svg
   width="800"
   height="602"
   viewBox="0 0 201.02888 151.27424"
   version="1.1"
   id="svg1"
   inkscape:version="1.3.2 (091e20e, 2023-11-25)"
   sodipodi:docname="23004051-acteurs.svg"
   xmlns:inkscape="http://www.inkscape.org/namespaces/inkscape"
   xmlns:sodipodi="http://sodipodi.sourceforge.net/DTD/sodipodi-0.dtd"
   xmlns="http://www.w3.org/2000/svg"
   xmlns:svg="http://www.w3.org/2000/svg">
  <sodipodi:namedview
     id="namedview1"
     pagecolor="#ffffff"
     bordercolor="#000000"
     borderopacity="0.24705882"
     inkscape:showpageshadow="2"
     inkscape:pageopacity="0.0"
     inkscape:pagecheckerboard="0"
     inkscape:deskcolor="#d1d1d1"
     inkscape:document-units="mm"
     inkscape:zoom="1.0035928"
     inkscape:cx="449.38545"
     inkscape:cy="203.7679"
     inkscape:window-width="1712"
     inkscape:window-height="972"
     inkscape:window-x="0"
     inkscape:window-y="39"
     inkscape:window-maximized="0"
     inkscape:current-layer="layer1"
     showgrid="false">
    <inkscape:grid
       id="grid1"
       units="mm"
       originx="0"
       originy="0"
       spacingx="0.94974274"
       spacingy="0.94974279"
       empcolor="#0099e5"
       empopacity="0.30196078"
       color="#0099e5"
       opacity="0.14901961"
       empspacing="5"
       dotted="false"
       gridanglex="30"
       gridanglez="30"
       visible="false" />
  </sodipodi:namedview>
  <defs
     id="defs1">
    <rect
       x="422.4821"
       y="106.61694"
       width="210.24463"
       height="110.60262"
       id="rect1" />
    <rect
       x="219.38534"
       y="403.78251"
       width="48.759303"
       height="252.18564"
       id="rect48" />
    <linearGradient
       id="swatch4"
       inkscape:swatch="solid">
      <stop
         style="stop-color:#000000;stop-opacity:1;"
         offset="0"
         id="stop4" />
    </linearGradient>
    <linearGradient
       id="swatch3"
       inkscape:swatch="solid">
      <stop
         style="stop-color:#000000;stop-opacity:1;"
         offset="0"
         id="stop3" />
    </linearGradient>
    <linearGradient
       id="swatch7"
       inkscape:swatch="solid">
      <stop
         style="stop-color:#000000;stop-opacity:1;"
         offset="0"
         id="stop7" />
    </linearGradient>
    <linearGradient
       id="swatch2">
      <stop
         style="stop-color:#000000;stop-opacity:1;"
         offset="0"
         id="stop2" />
    </linearGradient>
    <linearGradient
       id="swatch1"
       inkscape:swatch="solid">
      <stop
         style="stop-color:#000000;stop-opacity:1;"
         offset="0"
         id="stop1" />
    </linearGradient>
  </defs>
  <g
     inkscape:label="Calque 1"
     inkscape:groupmode="layer"
     id="layer1">
    <text
       xml:space="preserve"
       style="font-size:3.175px;fill:#fefefe;fill-opacity:1;stroke:#000000;stroke-width:0.264583;stroke-opacity:1"
       x="46.096264"
       y="56.599213"
       id="text3"><tspan
         sodipodi:role="line"
         id="tspan3"
         style="stroke-width:0.264583"
         x="46.096264"
         y="56.599213" /></text>
    <text
       xml:space="preserve"
       style="font-style:normal;font-variant:normal;font-weight:normal;font-stretch:normal;font-size:5.64444px;font-family:Arial;-inkscape-font-specification:Arial;fill:#fefefe;fill-opacity:1;stroke:#000000;stroke-width:0.264583;stroke-opacity:1"
       x="53.681728"
       y="99.777992"
       id="text4"><tspan
         sodipodi:role="line"
         id="tspan4"
         style="font-size:5.64444px;stroke-width:0.264583"
         x="53.681728"
         y="99.777992" /></text>
    <text
       xml:space="preserve"
       style="font-size:5.36076px;font-family:Arial;-inkscape-font-specification:Arial;fill:#000000;fill-opacity:1;stroke:#000000;stroke-width:0.251286;stroke-opacity:1"
       x="129.29199"
       y="42.853462"
       id="text20"><tspan
         sodipodi:role="line"
         id="tspan20"
         style="stroke-width:0.251286"
         x="129.29199"
         y="42.853462" /></text>
    <path
       sodipodi:type="star"
       style="fill:#ffffff;fill-opacity:1;stroke:#000000;stroke-width:0.251286"
       id="path1"
       inkscape:flatsided="true"
       sodipodi:sides="6"
       sodipodi:cx="100.51444"
       sodipodi:cy="2.4774685"
       sodipodi:r1="25.482534"
       sodipodi:r2="20.615805"
       sodipodi:arg1="-1.5707963"
       sodipodi:arg2="-1.0471975"
       inkscape:rounded="0"
       inkscape:randomized="0"
       d="m 100.51444,-23.005066 22.06852,12.741268 0,25.482534 -22.06852,12.741267 -22.06852,-12.741268 10e-7,-25.482534 z"
       inkscape:transform-center-y="-2.9540096"
       transform="matrix(3.2055343,0,0,1.2139599,-221.49103,43.035436)"
       inkscape:transform-center-x="-1.5527062e-06" />
    <path
       sodipodi:type="star"
       style="fill:#ffffff;fill-opacity:1;stroke:#000000;stroke-width:0.251286"
       id="path14-5"
       inkscape:flatsided="true"
       sodipodi:sides="6"
       sodipodi:cx="15.08202"
       sodipodi:cy="88.69664"
       sodipodi:r1="17.958376"
       sodipodi:r2="15.55241"
       sodipodi:arg1="-0.019997334"
       sodipodi:arg2="0.50360144"
       inkscape:rounded="0"
       inkscape:randomized="0"
       d="M 33.036805,88.337544 24.370398,104.06639 6.4156131,104.42549 -2.8727655,89.055736 5.7936411,73.326888 23.748426,72.967792 Z"
       transform="matrix(0.98620371,0,0,0.97627095,121.4674,-44.234798)" />
    <path
       sodipodi:type="star"
       style="fill:#ffffff;fill-opacity:1;stroke:#000000;stroke-width:0.251286"
       id="path14-8"
       inkscape:flatsided="true"
       sodipodi:sides="6"
       sodipodi:cx="15.08202"
       sodipodi:cy="88.69664"
       sodipodi:r1="17.958376"
       sodipodi:r2="15.55241"
       sodipodi:arg1="-0.019997334"
       sodipodi:arg2="0.50360144"
       inkscape:rounded="0"
       inkscape:randomized="0"
       d="M 33.036805,88.337544 24.370398,104.06639 6.4156131,104.42549 -2.8727655,89.055736 5.7936411,73.326888 23.748426,72.967792 Z"
       inkscape:transform-center-y="1.2430199e-06"
       transform="translate(47.263963,-45.483822)" />
    <text
       xml:space="preserve"
       style="font-style:normal;font-variant:normal;font-weight:normal;font-stretch:normal;font-size:5.36076px;font-family:'Times New Roman';-inkscape-font-specification:'Times New Roman, ';text-align:center;text-anchor:middle;fill:#000000;fill-opacity:1;stroke:#000000;stroke-width:0.251286"
       x="100.43157"
       y="58.151615"
       id="text24"><tspan
         sodipodi:role="line"
         style="font-style:normal;font-variant:normal;font-weight:normal;font-stretch:normal;font-family:'Times New Roman';-inkscape-font-specification:'Times New Roman, ';text-align:center;text-anchor:middle;fill:#000000;fill-opacity:1;stroke-width:0.251286"
         x="100.43157"
         y="58.151615"
         id="tspan23" /><tspan
         sodipodi:role="line"
         style="font-style:normal;font-variant:normal;font-weight:normal;font-stretch:normal;font-family:'Times New Roman';-inkscape-font-specification:'Times New Roman, ';text-align:center;text-anchor:middle;fill:#000000;fill-opacity:1;stroke-width:0.251286"
         x="100.43157"
         y="64.85257"
         id="tspan24">Personnel du site web </tspan><tspan
         sodipodi:role="line"
         style="font-style:normal;font-variant:normal;font-weight:normal;font-stretch:normal;font-family:'Times New Roman';-inkscape-font-specification:'Times New Roman, ';text-align:center;text-anchor:middle;fill:#000000;fill-opacity:1;stroke-width:0.251286"
         x="100.43157"
         y="71.553513"
         id="tspan25" /></text>
    <text
       xml:space="preserve"
       style="font-style:normal;font-variant:normal;font-weight:normal;font-stretch:normal;font-size:5.36076px;font-family:'Times New Roman';-inkscape-font-specification:'Times New Roman, ';text-align:center;text-anchor:middle;fill:#000000;fill-opacity:1;stroke:#000000;stroke-width:0.251286"
       x="137.26862"
       y="28.450588"
       id="text29"><tspan
         sodipodi:role="line"
         style="font-style:normal;font-variant:normal;font-weight:normal;font-stretch:normal;font-family:'Times New Roman';-inkscape-font-specification:'Times New Roman, ';text-align:center;text-anchor:middle;fill:#000000;fill-opacity:1;stroke-width:0.251286"
         x="137.26862"
         y="28.450588"
         id="tspan27" /><tspan
         sodipodi:role="line"
         style="font-style:normal;font-variant:normal;font-weight:normal;font-stretch:normal;font-family:'Times New Roman';-inkscape-font-specification:'Times New Roman, ';text-align:center;text-anchor:middle;fill:#000000;fill-opacity:1;stroke-width:0.251286"
         x="137.26862"
         y="35.151535"
         id="tspan28" /><tspan
         sodipodi:role="line"
         style="font-style:normal;font-variant:normal;font-weight:normal;font-stretch:normal;font-family:'Times New Roman';-inkscape-font-specification:'Times New Roman, ';text-align:center;text-anchor:middle;fill:#000000;fill-opacity:1;stroke-width:0.251286"
         x="137.26862"
         y="41.852486"
         id="tspan29">Développeurs </tspan><tspan
         sodipodi:role="line"
         style="font-style:normal;font-variant:normal;font-weight:normal;font-stretch:normal;font-family:'Times New Roman';-inkscape-font-specification:'Times New Roman, ';text-align:center;text-anchor:middle;fill:#000000;fill-opacity:1;stroke-width:0.251286"
         x="137.26862"
         y="48.553436"
         id="tspan30">web</tspan></text>
    <text
       xml:space="preserve"
       style="font-style:normal;font-variant:normal;font-weight:normal;font-stretch:normal;font-size:5.36076px;font-family:'Times New Roman';-inkscape-font-specification:'Times New Roman, ';text-align:center;text-anchor:middle;fill:#000000;fill-opacity:1;stroke:#000000;stroke-width:0.251286"
       x="62.165504"
       y="28.214602"
       id="text38"><tspan
         sodipodi:role="line"
         style="font-style:normal;font-variant:normal;font-weight:normal;font-stretch:normal;font-family:'Times New Roman';-inkscape-font-specification:'Times New Roman, ';text-align:center;text-anchor:middle;fill:#000000;fill-opacity:1;stroke-width:0.251286"
         x="62.165504"
         y="28.214602"
         id="tspan35" /><tspan
         sodipodi:role="line"
         style="font-style:normal;font-variant:normal;font-weight:normal;font-stretch:normal;font-family:'Times New Roman';-inkscape-font-specification:'Times New Roman, ';text-align:center;text-anchor:middle;fill:#000000;fill-opacity:1;stroke-width:0.251286"
         x="62.165504"
         y="34.915554"
         id="tspan36" /><tspan
         sodipodi:role="line"
         style="font-style:normal;font-variant:normal;font-weight:normal;font-stretch:normal;font-family:'Times New Roman';-inkscape-font-specification:'Times New Roman, ';text-align:center;text-anchor:middle;fill:#000000;fill-opacity:1;stroke-width:0.251286"
         x="62.165504"
         y="41.616505"
         id="tspan39">Rédacteurs</tspan><tspan
         sodipodi:role="line"
         style="font-style:normal;font-variant:normal;font-weight:normal;font-stretch:normal;font-family:'Times New Roman';-inkscape-font-specification:'Times New Roman, ';text-align:center;text-anchor:middle;fill:#000000;fill-opacity:1;stroke-width:0.251286"
         x="62.165504"
         y="48.317455"
         id="tspan1">web </tspan><tspan
         sodipodi:role="line"
         style="font-style:normal;font-variant:normal;font-weight:normal;font-stretch:normal;font-family:'Times New Roman';-inkscape-font-specification:'Times New Roman, ';text-align:center;text-anchor:middle;fill:#000000;fill-opacity:1;stroke-width:0.251286"
         x="62.165504"
         y="55.018406"
         id="tspan38" /></text>
    <text
       xml:space="preserve"
       transform="scale(0.25128611)"
       id="text48"
       style="font-style:normal;font-variant:normal;font-weight:normal;font-stretch:normal;font-size:21.3333px;font-family:'Times New Roman';-inkscape-font-specification:'Times New Roman, ';text-align:center;white-space:pre;shape-inside:url(#rect48);display:inline;fill:#000000;fill-opacity:1;stroke:#000000" />
    <text
       xml:space="preserve"
       style="font-style:normal;font-variant:normal;font-weight:normal;font-stretch:normal;font-size:5.7694px;font-family:'Times New Roman';-inkscape-font-specification:'Times New Roman, ';text-align:center;text-anchor:middle;fill:#000000;fill-opacity:1;stroke:#000000;stroke-width:0.270441"
       x="100.19329"
       y="142.33784"
       id="text51"
       transform="scale(1.0144253,0.98577982)"><tspan
         sodipodi:role="line"
         style="font-style:normal;font-variant:normal;font-weight:normal;font-stretch:normal;font-family:'Times New Roman';-inkscape-font-specification:'Times New Roman, ';text-align:center;text-anchor:middle;fill:#000000;fill-opacity:1;stroke-width:0.270441"
         x="100.19329"
         y="142.33784"
         id="tspan51">Public</tspan></text>
    <path
       sodipodi:type="star"
       style="fill:#ffffff;fill-opacity:0;stroke:#000000;stroke-width:0.251286"
       id="path10"
       inkscape:flatsided="true"
       sodipodi:sides="6"
       sodipodi:cx="100.51444"
       sodipodi:cy="2.4774685"
       sodipodi:r1="25.482534"
       sodipodi:r2="20.615805"
       sodipodi:arg1="-1.5707963"
       sodipodi:arg2="-1.0471975"
       inkscape:rounded="0"
       inkscape:randomized="0"
       d="m 100.51444,-23.005066 22.06852,12.741268 0,25.482534 -22.06852,12.741267 -22.06852,-12.741268 10e-7,-25.482534 z"
       inkscape:transform-center-y="-7.0370027"
       transform="matrix(4.3554899,0,0,2.8918788,-336.60545,68.472579)"
       inkscape:transform-center-x="2.4764676e-05" />
    <path
       sodipodi:type="star"
       style="fill:#ffffff;fill-opacity:1;stroke:#000000;stroke-width:0.251286"
       id="path13"
       inkscape:flatsided="true"
       sodipodi:sides="6"
       sodipodi:cx="15.08202"
       sodipodi:cy="88.69664"
       sodipodi:r1="17.958376"
       sodipodi:r2="15.55241"
       sodipodi:arg1="-0.019997334"
       sodipodi:arg2="0.50360144"
       inkscape:rounded="0"
       inkscape:randomized="0"
       d="M 33.036805,88.337544 24.370398,104.06639 6.4156131,104.42549 -2.8727655,89.055736 5.7936411,73.326888 23.748426,72.967792 Z"
       inkscape:transform-center-y="1.439766e-06"
       transform="matrix(1.0327255,0,0,0.99986044,13.490947,6.5458173)" />
    <path
       sodipodi:type="star"
       style="fill:#ffffff;stroke:#000000;stroke-width:0.251286;fill-opacity:1"
       id="path14"
       inkscape:flatsided="true"
       sodipodi:sides="6"
       sodipodi:cx="15.08202"
       sodipodi:cy="88.69664"
       sodipodi:r1="17.958376"
       sodipodi:r2="15.55241"
       sodipodi:arg1="-0.019997334"
       sodipodi:arg2="0.50360144"
       inkscape:rounded="0"
       inkscape:randomized="0"
       d="M 33.036805,88.337544 24.370398,104.06639 6.4156131,104.42549 -2.8727655,89.055736 5.7936411,73.326888 23.748426,72.967792 Z"
       inkscape:transform-center-y="1.2430199e-06"
       transform="translate(58.298356,6.5334386)" />
    <path
       sodipodi:type="star"
       style="fill:#ffffff;fill-opacity:1;stroke:#000000;stroke-width:0.251286"
       id="path15"
       inkscape:flatsided="true"
       sodipodi:sides="6"
       sodipodi:cx="15.08202"
       sodipodi:cy="88.69664"
       sodipodi:r1="17.958376"
       sodipodi:r2="15.55241"
       sodipodi:arg1="-0.019997334"
       sodipodi:arg2="0.50360144"
       inkscape:rounded="0"
       inkscape:randomized="0"
       d="M 33.036805,88.337544 24.370398,104.06639 6.4156131,104.42549 -2.8727655,89.055736 5.7936411,73.326888 23.748426,72.967792 Z"
       inkscape:transform-center-y="1.0140466e-06"
       transform="matrix(1.034716,0,0,0.99985202,111.9291,6.5465637)"
       inkscape:transform-center-x="-3.6774382e-06" />
    <path
       sodipodi:type="star"
       style="fill:#ffffff;fill-opacity:1;stroke:#000000;stroke-width:0.251286"
       id="path16"
       inkscape:flatsided="true"
       sodipodi:sides="6"
       sodipodi:cx="15.08202"
       sodipodi:cy="88.69664"
       sodipodi:r1="17.958376"
       sodipodi:r2="15.55241"
       sodipodi:arg1="-0.019997334"
       sodipodi:arg2="0.50360144"
       inkscape:rounded="0"
       inkscape:randomized="0"
       d="M 33.036805,88.337544 24.370398,104.06639 6.4156131,104.42549 -2.8727655,89.055736 5.7936411,73.326888 23.748426,72.967792 Z"
       inkscape:transform-center-y="1.1729862e-06"
       transform="matrix(1.122383,0,0,0.99193969,156.64911,7.1231677)"
       inkscape:transform-center-x="2.3334462e-06" />
    <text
       xml:space="preserve"
       style="font-style:normal;font-variant:normal;font-weight:normal;font-stretch:normal;font-size:4.75258px;font-family:'Times New Roman';-inkscape-font-specification:'Times New Roman, ';text-align:center;text-anchor:middle;fill:#000000;fill-opacity:1;stroke:#000000;stroke-width:0.222778"
       x="28.082634"
       y="87.964577"
       id="text19"
       transform="scale(1.0560354,0.94693795)"><tspan
         sodipodi:role="line"
         style="font-style:normal;font-variant:normal;font-weight:normal;font-stretch:normal;font-family:'Times New Roman';-inkscape-font-specification:'Times New Roman, ';text-align:center;text-anchor:middle;fill:#000000;fill-opacity:1;stroke-width:0.222778"
         x="28.082634"
         y="87.964577"
         id="tspan16" /><tspan
         sodipodi:role="line"
         style="font-style:normal;font-variant:normal;font-weight:normal;font-stretch:normal;font-family:'Times New Roman';-inkscape-font-specification:'Times New Roman, ';text-align:center;text-anchor:middle;fill:#000000;fill-opacity:1;stroke-width:0.222778"
         x="28.082634"
         y="93.905304"
         id="tspan17" /><tspan
         sodipodi:role="line"
         style="font-style:normal;font-variant:normal;font-weight:normal;font-stretch:normal;font-family:'Times New Roman';-inkscape-font-specification:'Times New Roman, ';text-align:center;text-anchor:middle;fill:#000000;fill-opacity:1;stroke-width:0.222778"
         x="28.082634"
         y="99.846024"
         id="tspan18">Gouvernements </tspan><tspan
         sodipodi:role="line"
         style="font-style:normal;font-variant:normal;font-weight:normal;font-stretch:normal;font-family:'Times New Roman';-inkscape-font-specification:'Times New Roman, ';text-align:center;text-anchor:middle;fill:#000000;fill-opacity:1;stroke-width:0.222778"
         x="28.082634"
         y="105.78675"
         id="tspan21">nationaux</tspan><tspan
         sodipodi:role="line"
         style="font-style:normal;font-variant:normal;font-weight:normal;font-stretch:normal;font-family:'Times New Roman';-inkscape-font-specification:'Times New Roman, ';text-align:center;text-anchor:middle;fill:#000000;fill-opacity:1;stroke-width:0.222778"
         x="28.082634"
         y="111.72748"
         id="tspan19" /></text>
    <text
       xml:space="preserve"
       style="font-style:normal;font-variant:normal;font-weight:normal;font-stretch:normal;font-size:5.36076px;font-family:'Times New Roman';-inkscape-font-specification:'Times New Roman, ';text-align:center;text-anchor:middle;fill:#000000;fill-opacity:1;stroke:#000000;stroke-width:0.251286"
       x="73.809647"
       y="83.11602"
       id="text32"><tspan
         sodipodi:role="line"
         style="font-style:normal;font-variant:normal;font-weight:normal;font-stretch:normal;font-family:'Times New Roman';-inkscape-font-specification:'Times New Roman, ';text-align:center;text-anchor:middle;fill:#000000;fill-opacity:1;stroke-width:0.251286"
         x="73.809647"
         y="83.11602"
         id="tspan22" /><tspan
         sodipodi:role="line"
         style="font-style:normal;font-variant:normal;font-weight:normal;font-stretch:normal;font-family:'Times New Roman';-inkscape-font-specification:'Times New Roman, ';text-align:center;text-anchor:middle;fill:#000000;fill-opacity:1;stroke-width:0.251286"
         x="73.809647"
         y="89.816971"
         id="tspan26" /><tspan
         sodipodi:role="line"
         style="font-style:normal;font-variant:normal;font-weight:normal;font-stretch:normal;font-family:'Times New Roman';-inkscape-font-specification:'Times New Roman, ';text-align:center;text-anchor:middle;fill:#000000;fill-opacity:1;stroke-width:0.251286"
         x="73.809647"
         y="96.517921"
         id="tspan31">Scientifiques</tspan><tspan
         sodipodi:role="line"
         style="font-style:normal;font-variant:normal;font-weight:normal;font-stretch:normal;font-family:'Times New Roman';-inkscape-font-specification:'Times New Roman, ';text-align:center;text-anchor:middle;fill:#000000;fill-opacity:1;stroke-width:0.251286"
         x="73.809647"
         y="103.21887"
         id="tspan32" /></text>
    <text
       xml:space="preserve"
       style="font-style:normal;font-variant:normal;font-weight:normal;font-stretch:normal;font-size:5.36079px;font-family:'Times New Roman';-inkscape-font-specification:'Times New Roman, ';text-align:center;text-anchor:middle;fill:#000000;fill-opacity:1;stroke:#000000;stroke-width:0.251683;stroke-dasharray:none"
       x="127.33381"
       y="83.116402"
       id="text40"><tspan
         sodipodi:role="line"
         style="font-style:normal;font-variant:normal;font-weight:normal;font-stretch:normal;font-family:'Times New Roman';-inkscape-font-specification:'Times New Roman, ';text-align:center;text-anchor:middle;fill:#000000;fill-opacity:1;stroke-width:0.251683;stroke-dasharray:none"
         x="127.33381"
         y="83.116402"
         id="tspan33" /><tspan
         sodipodi:role="line"
         style="font-style:normal;font-variant:normal;font-weight:normal;font-stretch:normal;font-family:'Times New Roman';-inkscape-font-specification:'Times New Roman, ';text-align:center;text-anchor:middle;fill:#000000;fill-opacity:1;stroke-width:0.251683;stroke-dasharray:none"
         x="127.33381"
         y="89.81739"
         id="tspan34" /><tspan
         sodipodi:role="line"
         style="font-style:normal;font-variant:normal;font-weight:normal;font-stretch:normal;font-family:'Times New Roman';-inkscape-font-specification:'Times New Roman, ';text-align:center;text-anchor:middle;fill:#000000;fill-opacity:1;stroke-width:0.251683;stroke-dasharray:none"
         x="127.33381"
         y="96.518379"
         id="tspan37">Citoyens</tspan><tspan
         sodipodi:role="line"
         style="font-style:normal;font-variant:normal;font-weight:normal;font-stretch:normal;font-family:'Times New Roman';-inkscape-font-specification:'Times New Roman, ';text-align:center;text-anchor:middle;fill:#000000;fill-opacity:1;stroke-width:0.251683;stroke-dasharray:none"
         x="127.33381"
         y="103.21936"
         id="tspan40" /></text>
    <text
       xml:space="preserve"
       style="font-style:normal;font-variant:normal;font-weight:normal;font-stretch:normal;font-size:3.95582px;font-family:'Times New Roman';-inkscape-font-specification:'Times New Roman, ';text-align:center;text-anchor:middle;fill:#000000;fill-opacity:1;stroke:#000000;stroke-width:0.22822"
       x="155.42778"
       y="91.03051"
       id="text44"
       transform="scale(1.1140454,0.89762952)"><tspan
         sodipodi:role="line"
         style="font-style:normal;font-variant:normal;font-weight:normal;font-stretch:normal;font-size:3.95582px;font-family:'Times New Roman';-inkscape-font-specification:'Times New Roman, ';text-align:center;text-anchor:middle;fill:#000000;fill-opacity:1;stroke-width:0.22822"
         x="155.42778"
         y="91.03051"
         id="tspan41" /><tspan
         sodipodi:role="line"
         style="font-style:normal;font-variant:normal;font-weight:normal;font-stretch:normal;font-size:3.95582px;font-family:'Times New Roman';-inkscape-font-specification:'Times New Roman, ';text-align:center;text-anchor:middle;fill:#000000;fill-opacity:1;stroke-width:0.22822"
         x="155.42778"
         y="95.975288"
         id="tspan42" /><tspan
         sodipodi:role="line"
         style="font-style:normal;font-variant:normal;font-weight:normal;font-stretch:normal;font-size:3.95582px;font-family:'Times New Roman';-inkscape-font-specification:'Times New Roman, ';text-align:center;text-anchor:middle;fill:#000000;fill-opacity:1;stroke-width:0.22822"
         x="155.42778"
         y="100.92006"
         id="tspan43">Organisations </tspan><tspan
         sodipodi:role="line"
         style="font-style:normal;font-variant:normal;font-weight:normal;font-stretch:normal;font-size:3.95582px;font-family:'Times New Roman';-inkscape-font-specification:'Times New Roman, ';text-align:center;text-anchor:middle;fill:#000000;fill-opacity:1;stroke-width:0.22822"
         x="155.42778"
         y="105.86484"
         id="tspan45">non-</tspan><tspan
         sodipodi:role="line"
         style="font-style:normal;font-variant:normal;font-weight:normal;font-stretch:normal;font-size:3.95582px;font-family:'Times New Roman';-inkscape-font-specification:'Times New Roman, ';text-align:center;text-anchor:middle;fill:#000000;fill-opacity:1;stroke-width:0.22822"
         x="155.42778"
         y="110.80961"
         id="tspan46"> gouvernementales</tspan><tspan
         sodipodi:role="line"
         style="font-style:normal;font-variant:normal;font-weight:normal;font-stretch:normal;font-size:3.95582px;font-family:'Times New Roman';-inkscape-font-specification:'Times New Roman, ';text-align:center;text-anchor:middle;fill:#000000;fill-opacity:1;stroke-width:0.22822"
         x="155.42778"
         y="115.75439"
         id="tspan44" /></text>
    <text
       xml:space="preserve"
       transform="scale(0.25128611)"
       id="text1"
       style="white-space:pre;shape-inside:url(#rect1);fill:#000000" />
    <path
       style="fill:#ffffff;stroke-width:0.99642"
       d="M 212.73568,519.19659 23.415871,446.58618 23.16345,301.08669 22.91103,155.5872 28.145551,153.60989 C 31.024537,152.52238 116.47239,119.7726 218.02967,80.832618 L 402.67927,10.03264 588.55506,81.293026 C 690.78674,120.48624 776.17809,153.25252 778.3136,154.10698 l 3.88277,1.55358 -0.25241,145.50212 -0.25242,145.50212 -189.31981,72.59185 c -104.1259,39.92552 -189.54401,72.58252 -189.81802,72.57111 -0.27402,-0.0114 -85.69213,-32.69544 -189.81803,-72.63117 z m 186.33055,39.77643 c 0.54804,-0.16955 2.23276,0.0389 3.74384,0.46324 3.43292,0.96399 7.4193,-1.41055 8.30723,-4.94836 0.85563,-3.40914 -1.91113,-7.45329 -5.09909,-7.45329 -1.98616,0 -2.46808,-0.49994 -2.46808,-2.56035 0,-2.08525 -0.41603,-2.50126 -2.24195,-2.24194 -2.0744,0.29461 -2.23462,0.80242 -2.14392,6.79513 0.0549,3.62719 -0.0787,4.61357 -0.3037,2.24195 l -0.40172,-4.23479 h -4.88222 c -3.87914,0 -5.39401,-0.5118 -7.37326,-2.49105 -1.99883,-1.99882 -3.48445,-2.49105 -7.51845,-2.49105 -3.80451,0 -5.02739,0.36356 -5.02739,1.49463 0,0.82205 0.67259,1.49463 1.49463,1.49463 1.1625,0 1.49463,1.32856 1.49463,5.97852 0,4.64997 -0.33213,5.97852 -1.49463,5.97852 -0.82204,0 -1.49463,0.44839 -1.49463,0.99642 0,0.54804 2.01775,0.99642 4.48389,0.99642 2.46614,0 4.48389,-0.44838 4.48389,-0.99642 0,-0.54803 -0.44839,-0.99642 -0.99642,-0.99642 -0.54803,0 -0.99642,-0.86115 -0.99642,-1.91366 0,-1.31612 0.93341,-2.11869 2.98926,-2.57023 1.6441,-0.3611 2.98926,-1.06931 2.98926,-1.5738 0,-0.50448 0.44839,-0.91725 0.99642,-0.91725 0.54804,0 0.99642,1.70388 0.99642,3.7864 0,2.08252 0.53072,4.31711 1.17938,4.96577 1.02234,1.02235 6.25624,1.13341 9.28303,0.19698 z m 33.15836,-0.53607 c 1.21801,-0.85313 2.21456,-2.42249 2.21456,-3.48747 0,-2.38331 -0.78156,-2.43967 -3.22074,-0.23223 -1.62444,1.47009 -2.00941,1.5043 -2.80336,0.24911 -0.50618,-0.80026 -0.9272,-1.98904 -0.93559,-2.64173 -0.021,-1.6356 1.70106,-2.55789 2.46575,-1.32059 0.90805,1.46926 4.49394,1.2437 4.49394,-0.28267 0,-2.11325 -2.20161,-3.68676 -5.15842,-3.68676 -3.38304,0 -6.24987,3.85563 -5.55798,7.475 0.26172,1.36906 0.0896,2.4892 -0.3824,2.4892 -0.47203,0 -0.85824,-2.27756 -0.85824,-5.06127 v -5.06127 l -2.98926,0.65655 c -2.8164,0.61859 -2.98926,0.47911 -2.98926,-2.41187 0,-2.26386 -0.45723,-3.06443 -1.74374,-3.05318 -2.51287,0.022 -5.10335,1.97902 -3.48747,2.63468 1.51066,0.61297 1.74735,12.29636 0.24911,12.29636 -0.54804,0 -0.99642,0.47172 -0.99642,1.04826 0,0.66233 2.94404,0.9773 7.99653,0.85552 4.39809,-0.106 8.28413,0.0949 8.63564,0.44638 1.03992,1.03992 2.70959,0.73941 5.06735,-0.91202 z m -9.74248,-14.3916 c 0,-1.32855 -0.66429,-1.99284 -1.99284,-1.99284 -1.92029,0 -2.7002,1.94977 -1.32856,3.3214 1.37163,1.37164 3.3214,0.59173 3.3214,-1.32856 z M 154.61578,440.55085 c 1.02536,-0.9679 35.70045,-62.1065 35.70045,-62.94651 0,-0.40564 -8.54677,-14.46289 -18.99282,-31.23835 l -18.99283,-30.50083 -23.10592,0.12864 c -12.70826,0.0707 -29.773603,0.40705 -37.922988,0.74731 l -14.817064,0.61868 -17.815693,31.28614 c -9.798631,17.20739 -17.815692,31.47787 -17.815692,31.7122 0,0.23432 8.631488,14.31908 19.181086,31.29948 l 19.181086,30.87344 37.365755,-0.6744 c 20.55116,-0.37092 37.66675,-0.95853 38.03463,-1.3058 z m 162.87015,0.8654 12.08317,-0.002 17.59731,-31.95377 17.59731,-31.95377 -18.62898,-30.82069 -18.62897,-30.8207 -18.02646,0.003 c -9.91454,0.002 -26.42608,0.29636 -36.69232,0.65516 l -18.66588,0.65235 -17.09229,30.98117 c -9.40076,17.03964 -17.10575,31.47721 -17.12221,32.08348 -0.0164,0.60628 8.22792,14.88513 18.32082,31.73081 l 18.35074,30.62851 24.41229,-0.59053 c 13.42676,-0.32479 29.84971,-0.59149 36.49547,-0.59268 z m 229.13587,-0.37946 c 0.047,-0.0665 8.21735,-14.38709 18.15642,-31.82351 l 18.07103,-31.70261 -19.20824,-30.57365 -19.20825,-30.57365 -11.90164,-0.32365 c -6.5459,-0.17801 -23.64468,-0.0158 -37.99727,0.36038 l -26.09564,0.68403 -18.05919,31.66788 -18.05919,31.6679 19.24433,31.01389 19.24432,31.0139 37.86396,-0.64499 c 20.82518,-0.35474 37.90239,-0.69941 37.94936,-0.76592 z m 172.20806,-0.6354 14.0371,-0.0163 18.43377,-29.52716 c 10.13857,-16.23994 18.98951,-30.54468 19.66875,-31.7883 1.13999,-2.0872 -0.35548,-4.58597 -19.4409,-32.4837 l -20.67588,-30.22257 -21.91054,-0.2451 c -12.05079,-0.13481 -30.63645,0.0894 -41.30145,0.49821 l -19.39092,0.74331 -19.22036,30.72034 c -10.5712,16.89618 -19.22035,31.16656 -19.22035,31.71195 0,0.54539 9.30407,14.68512 20.67571,31.42162 l 20.67572,30.42999 26.81613,-0.61301 c 14.74886,-0.33715 33.13281,-0.62034 40.85322,-0.62929 z m -175.53601,-163.97354 141.23836,-30.8103 0.004,-62.40081 0.004,-62.40081 -2.74015,-0.55206 C 680.29334,119.96023 616.4515,106.01918 539.92967,89.283762 L 400.79906,58.855724 261.92847,89.214401 C 185.54965,105.91167 121.82481,119.8323 120.31772,120.14913 l -2.74015,0.57604 v 62.47087 62.47089 l 141.24254,30.99299 c 77.6834,17.04614 141.69093,30.89967 142.23896,30.78561 0.54804,-0.11405 64.55369,-14.07201 142.23478,-31.01768 z"
       id="path2"
       transform="scale(0.25128611)" />
  </g>
</svg>
