<?xml version="1.0" encoding="UTF-8" standalone="no"?>
<!-- Created with Inkscape (http://www.inkscape.org/) -->

<svg
   width="800"
   height="602"
   viewBox="0 0 201.02888 151.27424"
   version="1.1"
   id="svg1"
   inkscape:version="1.3.2 (091e20e, 2023-11-25)"
   sodipodi:docname="23004051-acteurs.svg"
   xmlns:inkscape="http://www.inkscape.org/namespaces/inkscape"
   xmlns:sodipodi="http://sodipodi.sourceforge.net/DTD/sodipodi-0.dtd"
   xmlns="http://www.w3.org/2000/svg"
   xmlns:svg="http://www.w3.org/2000/svg">
  <sodipodi:namedview
     id="namedview1"
     pagecolor="#ffffff"
     bordercolor="#000000"
     borderopacity="0.24705882"
     inkscape:showpageshadow="2"
     inkscape:pageopacity="0.0"
     inkscape:pagecheckerboard="0"
     inkscape:deskcolor="#d1d1d1"
     inkscape:document-units="mm"
     inkscape:zoom="0.99734301"
     inkscape:cx="486.29207"
     inkscape:cy="298.29256"
     inkscape:window-width="1712"
     inkscape:window-height="970"
     inkscape:window-x="0"
     inkscape:window-y="39"
     inkscape:window-maximized="0"
     inkscape:current-layer="layer1"
     showgrid="false">
    <inkscape:grid
       id="grid1"
       units="mm"
       originx="0"
       originy="0"
       spacingx="0.94974274"
       spacingy="0.94974279"
       empcolor="#0099e5"
       empopacity="0.30196078"
       color="#0099e5"
       opacity="0.14901961"
       empspacing="5"
       dotted="false"
       gridanglex="30"
       gridanglez="30"
       visible="false" />
  </sodipodi:namedview>
  <defs
     id="defs1">
    <rect
       x="422.4821"
       y="106.61694"
       width="210.24463"
       height="110.60262"
       id="rect1" />
    <rect
       x="219.38534"
       y="403.78251"
       width="48.759303"
       height="252.18564"
       id="rect48" />
    <linearGradient
       id="swatch4"
       inkscape:swatch="solid">
      <stop
         style="stop-color:#000000;stop-opacity:1;"
         offset="0"
         id="stop4" />
    </linearGradient>
    <linearGradient
       id="swatch3"
       inkscape:swatch="solid">
      <stop
         style="stop-color:#000000;stop-opacity:1;"
         offset="0"
         id="stop3" />
    </linearGradient>
    <linearGradient
       id="swatch7"
       inkscape:swatch="solid">
      <stop
         style="stop-color:#000000;stop-opacity:1;"
         offset="0"
         id="stop7" />
    </linearGradient>
    <linearGradient
       id="swatch2">
      <stop
         style="stop-color:#000000;stop-opacity:1;"
         offset="0"
         id="stop2" />
    </linearGradient>
    <linearGradient
       id="swatch1"
       inkscape:swatch="solid">
      <stop
         style="stop-color:#000000;stop-opacity:1;"
         offset="0"
         id="stop1" />
    </linearGradient>
  </defs>
  <g
     inkscape:label="Calque 1"
     inkscape:groupmode="layer"
     id="layer1">
    <text
       xml:space="preserve"
       style="font-size:3.175px;fill:#fefefe;fill-opacity:1;stroke:#000000;stroke-width:0.264583;stroke-opacity:1"
       x="46.096264"
       y="56.599213"
       id="text3"><tspan
         sodipodi:role="line"
         id="tspan3"
         style="stroke-width:0.264583"
         x="46.096264"
         y="56.599213" /></text>
    <text
       xml:space="preserve"
       style="font-style:normal;font-variant:normal;font-weight:normal;font-stretch:normal;font-size:5.64444px;font-family:Arial;-inkscape-font-specification:Arial;fill:#fefefe;fill-opacity:1;stroke:#000000;stroke-width:0.264583;stroke-opacity:1"
       x="53.681728"
       y="99.777992"
       id="text4"><tspan
         sodipodi:role="line"
         id="tspan4"
         style="font-size:5.64444px;stroke-width:0.264583"
         x="53.681728"
         y="99.777992" /></text>
    <text
       xml:space="preserve"
       style="font-size:5.36076px;font-family:Arial;-inkscape-font-specification:Arial;fill:#000000;fill-opacity:1;stroke:#000000;stroke-width:0.251286;stroke-opacity:1"
       x="129.29199"
       y="42.853462"
       id="text20"><tspan
         sodipodi:role="line"
         id="tspan20"
         style="stroke-width:0.251286"
         x="129.29199"
         y="42.853462" /></text>
    <path
       sodipodi:type="star"
       style="fill:#ffffff;fill-opacity:1;stroke:#000000;stroke-width:0.251286"
       id="path1"
       inkscape:flatsided="true"
       sodipodi:sides="6"
       sodipodi:cx="100.51444"
       sodipodi:cy="2.4774685"
       sodipodi:r1="25.482534"
       sodipodi:r2="20.615805"
       sodipodi:arg1="-1.5707963"
       sodipodi:arg2="-1.0471975"
       inkscape:rounded="0"
       inkscape:randomized="0"
       d="m 100.51444,-23.005066 22.06852,12.741268 0,25.482534 -22.06852,12.741267 -22.06852,-12.741268 10e-7,-25.482534 z"
       inkscape:transform-center-y="-2.9540096"
       transform="matrix(3.2055343,0,0,1.2139599,-221.49103,43.035436)"
       inkscape:transform-center-x="-1.5527062e-06" />
    <path
       sodipodi:type="star"
       style="fill:#ffffff;fill-opacity:1;stroke:#000000;stroke-width:0.251286"
       id="path14-5"
       inkscape:flatsided="true"
       sodipodi:sides="6"
       sodipodi:cx="15.08202"
       sodipodi:cy="88.69664"
       sodipodi:r1="17.958376"
       sodipodi:r2="15.55241"
       sodipodi:arg1="-0.019997334"
       sodipodi:arg2="0.50360144"
       inkscape:rounded="0"
       inkscape:randomized="0"
       d="M 33.036805,88.337544 24.370398,104.06639 6.4156131,104.42549 -2.8727655,89.055736 5.7936411,73.326888 23.748426,72.967792 Z"
       transform="matrix(0.98620371,0,0,0.97627095,121.4674,-44.234798)" />
    <path
       sodipodi:type="star"
       style="fill:#ffffff;fill-opacity:1;stroke:#000000;stroke-width:0.251286"
       id="path14-8"
       inkscape:flatsided="true"
       sodipodi:sides="6"
       sodipodi:cx="15.08202"
       sodipodi:cy="88.69664"
       sodipodi:r1="17.958376"
       sodipodi:r2="15.55241"
       sodipodi:arg1="-0.019997334"
       sodipodi:arg2="0.50360144"
       inkscape:rounded="0"
       inkscape:randomized="0"
       d="M 33.036805,88.337544 24.370398,104.06639 6.4156131,104.42549 -2.8727655,89.055736 5.7936411,73.326888 23.748426,72.967792 Z"
       inkscape:transform-center-y="1.2430199e-06"
       transform="translate(47.263963,-45.483822)" />
    <text
       xml:space="preserve"
       style="font-style:normal;font-variant:normal;font-weight:normal;font-stretch:normal;font-size:5.36076px;font-family:'Times New Roman';-inkscape-font-specification:'Times New Roman, ';text-align:center;text-anchor:middle;fill:#000000;fill-opacity:1;stroke:#000000;stroke-width:0.251286"
       x="100.43157"
       y="58.151615"
       id="text24"><tspan
         sodipodi:role="line"
         style="font-style:normal;font-variant:normal;font-weight:normal;font-stretch:normal;font-family:'Times New Roman';-inkscape-font-specification:'Times New Roman, ';text-align:center;text-anchor:middle;fill:#000000;fill-opacity:1;stroke-width:0.251286"
         x="100.43157"
         y="58.151615"
         id="tspan23" /><tspan
         sodipodi:role="line"
         style="font-style:normal;font-variant:normal;font-weight:normal;font-stretch:normal;font-family:'Times New Roman';-inkscape-font-specification:'Times New Roman, ';text-align:center;text-anchor:middle;fill:#000000;fill-opacity:1;stroke-width:0.251286"
         x="100.43157"
         y="64.85257"
         id="tspan24">Personnel du site web </tspan><tspan
         sodipodi:role="line"
         style="font-style:normal;font-variant:normal;font-weight:normal;font-stretch:normal;font-family:'Times New Roman';-inkscape-font-specification:'Times New Roman, ';text-align:center;text-anchor:middle;fill:#000000;fill-opacity:1;stroke-width:0.251286"
         x="100.43157"
         y="71.553513"
         id="tspan25" /></text>
    <text
       xml:space="preserve"
       style="font-style:normal;font-variant:normal;font-weight:normal;font-stretch:normal;font-size:5.36076px;font-family:'Times New Roman';-inkscape-font-specification:'Times New Roman, ';text-align:center;text-anchor:middle;fill:#000000;fill-opacity:1;stroke:#000000;stroke-width:0.251286"
       x="137.26862"
       y="28.450588"
       id="text29"><tspan
         sodipodi:role="line"
         style="font-style:normal;font-variant:normal;font-weight:normal;font-stretch:normal;font-family:'Times New Roman';-inkscape-font-specification:'Times New Roman, ';text-align:center;text-anchor:middle;fill:#000000;fill-opacity:1;stroke-width:0.251286"
         x="137.26862"
         y="28.450588"
         id="tspan27" /><tspan
         sodipodi:role="line"
         style="font-style:normal;font-variant:normal;font-weight:normal;font-stretch:normal;font-family:'Times New Roman';-inkscape-font-specification:'Times New Roman, ';text-align:center;text-anchor:middle;fill:#000000;fill-opacity:1;stroke-width:0.251286"
         x="137.26862"
         y="35.151535"
         id="tspan28" /><tspan
         sodipodi:role="line"
         style="font-style:normal;font-variant:normal;font-weight:normal;font-stretch:normal;font-family:'Times New Roman';-inkscape-font-specification:'Times New Roman, ';text-align:center;text-anchor:middle;fill:#000000;fill-opacity:1;stroke-width:0.251286"
         x="137.26862"
         y="41.852486"
         id="tspan29">Développeurs </tspan><tspan
         sodipodi:role="line"
         style="font-style:normal;font-variant:normal;font-weight:normal;font-stretch:normal;font-family:'Times New Roman';-inkscape-font-specification:'Times New Roman, ';text-align:center;text-anchor:middle;fill:#000000;fill-opacity:1;stroke-width:0.251286"
         x="137.26862"
         y="48.553436"
         id="tspan30">web</tspan></text>
    <text
       xml:space="preserve"
       style="font-style:normal;font-variant:normal;font-weight:normal;font-stretch:normal;font-size:5.36076px;font-family:'Times New Roman';-inkscape-font-specification:'Times New Roman, ';text-align:center;text-anchor:middle;fill:#000000;fill-opacity:1;stroke:#000000;stroke-width:0.251286"
       x="62.165504"
       y="28.214602"
       id="text38"><tspan
         sodipodi:role="line"
         style="font-style:normal;font-variant:normal;font-weight:normal;font-stretch:normal;font-family:'Times New Roman';-inkscape-font-specification:'Times New Roman, ';text-align:center;text-anchor:middle;fill:#000000;fill-opacity:1;stroke-width:0.251286"
         x="62.165504"
         y="28.214602"
         id="tspan35" /><tspan
         sodipodi:role="line"
         style="font-style:normal;font-variant:normal;font-weight:normal;font-stretch:normal;font-family:'Times New Roman';-inkscape-font-specification:'Times New Roman, ';text-align:center;text-anchor:middle;fill:#000000;fill-opacity:1;stroke-width:0.251286"
         x="62.165504"
         y="34.915554"
         id="tspan36" /><tspan
         sodipodi:role="line"
         style="font-style:normal;font-variant:normal;font-weight:normal;font-stretch:normal;font-family:'Times New Roman';-inkscape-font-specification:'Times New Roman, ';text-align:center;text-anchor:middle;fill:#000000;fill-opacity:1;stroke-width:0.251286"
         x="62.165504"
         y="41.616505"
         id="tspan39">Rédacteurs</tspan><tspan
         sodipodi:role="line"
         style="font-style:normal;font-variant:normal;font-weight:normal;font-stretch:normal;font-family:'Times New Roman';-inkscape-font-specification:'Times New Roman, ';text-align:center;text-anchor:middle;fill:#000000;fill-opacity:1;stroke-width:0.251286"
         x="62.165504"
         y="48.317455"
         id="tspan1">web </tspan><tspan
         sodipodi:role="line"
         style="font-style:normal;font-variant:normal;font-weight:normal;font-stretch:normal;font-family:'Times New Roman';-inkscape-font-specification:'Times New Roman, ';text-align:center;text-anchor:middle;fill:#000000;fill-opacity:1;stroke-width:0.251286"
         x="62.165504"
         y="55.018406"
         id="tspan38" /></text>
    <text
       xml:space="preserve"
       transform="scale(0.25128611)"
       id="text48"
       style="font-style:normal;font-variant:normal;font-weight:normal;font-stretch:normal;font-size:21.3333px;font-family:'Times New Roman';-inkscape-font-specification:'Times New Roman, ';text-align:center;white-space:pre;shape-inside:url(#rect48);display:inline;fill:#000000;fill-opacity:1;stroke:#000000" />
    <text
       xml:space="preserve"
       style="font-style:normal;font-variant:normal;font-weight:normal;font-stretch:normal;font-size:5.7694px;font-family:'Times New Roman';-inkscape-font-specification:'Times New Roman, ';text-align:center;text-anchor:middle;fill:#000000;fill-opacity:1;stroke:#000000;stroke-width:0.270441"
       x="100.30813"
       y="139.15247"
       id="text51"
       transform="scale(1.0144253,0.98577983)"><tspan
         sodipodi:role="line"
         style="font-style:normal;font-variant:normal;font-weight:normal;font-stretch:normal;font-family:'Times New Roman';-inkscape-font-specification:'Times New Roman, ';text-align:center;text-anchor:middle;fill:#000000;fill-opacity:1;stroke-width:0.270441"
         x="100.30813"
         y="139.15247"
         id="tspan51">Collaborateurs</tspan></text>
    <path
       sodipodi:type="star"
       style="fill:#ffffff;fill-opacity:0;stroke:#000000;stroke-width:0.251286"
       id="path10"
       inkscape:flatsided="true"
       sodipodi:sides="6"
       sodipodi:cx="100.51444"
       sodipodi:cy="2.4774685"
       sodipodi:r1="25.482534"
       sodipodi:r2="20.615805"
       sodipodi:arg1="-1.5707963"
       sodipodi:arg2="-1.0471975"
       inkscape:rounded="0"
       inkscape:randomized="0"
       d="m 100.51444,-23.005066 22.06852,12.741268 0,25.482534 -22.06852,12.741267 -22.06852,-12.741268 10e-7,-25.482534 z"
       inkscape:transform-center-y="-7.0370027"
       transform="matrix(4.3554899,0,0,2.8918788,-336.60545,68.472579)"
       inkscape:transform-center-x="2.4764676e-05" />
    <path
       sodipodi:type="star"
       style="fill:#ffffff;fill-opacity:1;stroke:#000000;stroke-width:0.251286"
       id="path13"
       inkscape:flatsided="true"
       sodipodi:sides="6"
       sodipodi:cx="15.08202"
       sodipodi:cy="88.69664"
       sodipodi:r1="17.958376"
       sodipodi:r2="15.55241"
       sodipodi:arg1="-0.019997334"
       sodipodi:arg2="0.50360144"
       inkscape:rounded="0"
       inkscape:randomized="0"
       d="M 33.036805,88.337544 24.370398,104.06639 6.4156131,104.42549 -2.8727655,89.055736 5.7936411,73.326888 23.748426,72.967792 Z"
       inkscape:transform-center-y="1.439766e-06"
       transform="matrix(1.0327255,0,0,0.99986044,13.490947,6.5458173)" />
    <path
       sodipodi:type="star"
       style="fill:#ffffff;stroke:#000000;stroke-width:0.251286;fill-opacity:1"
       id="path14"
       inkscape:flatsided="true"
       sodipodi:sides="6"
       sodipodi:cx="15.08202"
       sodipodi:cy="88.69664"
       sodipodi:r1="17.958376"
       sodipodi:r2="15.55241"
       sodipodi:arg1="-0.019997334"
       sodipodi:arg2="0.50360144"
       inkscape:rounded="0"
       inkscape:randomized="0"
       d="M 33.036805,88.337544 24.370398,104.06639 6.4156131,104.42549 -2.8727655,89.055736 5.7936411,73.326888 23.748426,72.967792 Z"
       inkscape:transform-center-y="1.2430199e-06"
       transform="translate(58.298356,6.5334386)" />
    <path
       sodipodi:type="star"
       style="fill:#ffffff;fill-opacity:1;stroke:#000000;stroke-width:0.251286"
       id="path15"
       inkscape:flatsided="true"
       sodipodi:sides="6"
       sodipodi:cx="15.08202"
       sodipodi:cy="88.69664"
       sodipodi:r1="17.958376"
       sodipodi:r2="15.55241"
       sodipodi:arg1="-0.019997334"
       sodipodi:arg2="0.50360144"
       inkscape:rounded="0"
       inkscape:randomized="0"
       d="M 33.036805,88.337544 24.370398,104.06639 6.4156131,104.42549 -2.8727655,89.055736 5.7936411,73.326888 23.748426,72.967792 Z"
       inkscape:transform-center-y="1.0140466e-06"
       transform="matrix(1.034716,0,0,0.99985202,111.9291,6.5465637)"
       inkscape:transform-center-x="-3.6774382e-06" />
    <path
       sodipodi:type="star"
       style="fill:#ffffff;fill-opacity:1;stroke:#000000;stroke-width:0.251286"
       id="path16"
       inkscape:flatsided="true"
       sodipodi:sides="6"
       sodipodi:cx="15.08202"
       sodipodi:cy="88.69664"
       sodipodi:r1="17.958376"
       sodipodi:r2="15.55241"
       sodipodi:arg1="-0.019997334"
       sodipodi:arg2="0.50360144"
       inkscape:rounded="0"
       inkscape:randomized="0"
       d="M 33.036805,88.337544 24.370398,104.06639 6.4156131,104.42549 -2.8727655,89.055736 5.7936411,73.326888 23.748426,72.967792 Z"
       inkscape:transform-center-y="1.1729862e-06"
       transform="matrix(1.122383,0,0,0.99193969,156.64911,7.1231677)"
       inkscape:transform-center-x="2.3334462e-06" />
    <text
       xml:space="preserve"
       style="font-style:normal;font-variant:normal;font-weight:normal;font-stretch:normal;font-size:4.75258px;font-family:'Times New Roman';-inkscape-font-specification:'Times New Roman, ';text-align:center;text-anchor:middle;fill:#000000;fill-opacity:1;stroke:#000000;stroke-width:0.222778"
       x="28.082634"
       y="87.964577"
       id="text19"
       transform="scale(1.0560354,0.94693795)"><tspan
         sodipodi:role="line"
         style="font-style:normal;font-variant:normal;font-weight:normal;font-stretch:normal;font-family:'Times New Roman';-inkscape-font-specification:'Times New Roman, ';text-align:center;text-anchor:middle;fill:#000000;fill-opacity:1;stroke-width:0.222778"
         x="28.082634"
         y="87.964577"
         id="tspan16" /><tspan
         sodipodi:role="line"
         style="font-style:normal;font-variant:normal;font-weight:normal;font-stretch:normal;font-family:'Times New Roman';-inkscape-font-specification:'Times New Roman, ';text-align:center;text-anchor:middle;fill:#000000;fill-opacity:1;stroke-width:0.222778"
         x="28.082634"
         y="93.905304"
         id="tspan17" /><tspan
         sodipodi:role="line"
         style="font-style:normal;font-variant:normal;font-weight:normal;font-stretch:normal;font-family:'Times New Roman';-inkscape-font-specification:'Times New Roman, ';text-align:center;text-anchor:middle;fill:#000000;fill-opacity:1;stroke-width:0.222778"
         x="28.082634"
         y="99.846024"
         id="tspan18">Gouvernements </tspan><tspan
         sodipodi:role="line"
         style="font-style:normal;font-variant:normal;font-weight:normal;font-stretch:normal;font-family:'Times New Roman';-inkscape-font-specification:'Times New Roman, ';text-align:center;text-anchor:middle;fill:#000000;fill-opacity:1;stroke-width:0.222778"
         x="28.082634"
         y="105.78675"
         id="tspan21">nationaux</tspan><tspan
         sodipodi:role="line"
         style="font-style:normal;font-variant:normal;font-weight:normal;font-stretch:normal;font-family:'Times New Roman';-inkscape-font-specification:'Times New Roman, ';text-align:center;text-anchor:middle;fill:#000000;fill-opacity:1;stroke-width:0.222778"
         x="28.082634"
         y="111.72748"
         id="tspan19" /></text>
    <text
       xml:space="preserve"
       style="font-style:normal;font-variant:normal;font-weight:normal;font-stretch:normal;font-size:5.36076px;font-family:'Times New Roman';-inkscape-font-specification:'Times New Roman, ';text-align:center;text-anchor:middle;fill:#000000;fill-opacity:1;stroke:#000000;stroke-width:0.251286"
       x="73.809647"
       y="83.11602"
       id="text32"><tspan
         sodipodi:role="line"
         style="font-style:normal;font-variant:normal;font-weight:normal;font-stretch:normal;font-family:'Times New Roman';-inkscape-font-specification:'Times New Roman, ';text-align:center;text-anchor:middle;fill:#000000;fill-opacity:1;stroke-width:0.251286"
         x="73.809647"
         y="83.11602"
         id="tspan22" /><tspan
         sodipodi:role="line"
         style="font-style:normal;font-variant:normal;font-weight:normal;font-stretch:normal;font-family:'Times New Roman';-inkscape-font-specification:'Times New Roman, ';text-align:center;text-anchor:middle;fill:#000000;fill-opacity:1;stroke-width:0.251286"
         x="73.809647"
         y="89.816971"
         id="tspan26" /><tspan
         sodipodi:role="line"
         style="font-style:normal;font-variant:normal;font-weight:normal;font-stretch:normal;font-family:'Times New Roman';-inkscape-font-specification:'Times New Roman, ';text-align:center;text-anchor:middle;fill:#000000;fill-opacity:1;stroke-width:0.251286"
         x="73.809647"
         y="96.517921"
         id="tspan31">Scientifiques</tspan><tspan
         sodipodi:role="line"
         style="font-style:normal;font-variant:normal;font-weight:normal;font-stretch:normal;font-family:'Times New Roman';-inkscape-font-specification:'Times New Roman, ';text-align:center;text-anchor:middle;fill:#000000;fill-opacity:1;stroke-width:0.251286"
         x="73.809647"
         y="103.21887"
         id="tspan32" /></text>
    <text
       xml:space="preserve"
       style="font-style:normal;font-variant:normal;font-weight:normal;font-stretch:normal;font-size:5.36079px;font-family:'Times New Roman';-inkscape-font-specification:'Times New Roman, ';text-align:center;text-anchor:middle;fill:#000000;fill-opacity:1;stroke:#000000;stroke-width:0.251683;stroke-dasharray:none"
       x="127.33381"
       y="83.116402"
       id="text40"><tspan
         sodipodi:role="line"
         style="font-style:normal;font-variant:normal;font-weight:normal;font-stretch:normal;font-family:'Times New Roman';-inkscape-font-specification:'Times New Roman, ';text-align:center;text-anchor:middle;fill:#000000;fill-opacity:1;stroke-width:0.251683;stroke-dasharray:none"
         x="127.33381"
         y="83.116402"
         id="tspan33" /><tspan
         sodipodi:role="line"
         style="font-style:normal;font-variant:normal;font-weight:normal;font-stretch:normal;font-family:'Times New Roman';-inkscape-font-specification:'Times New Roman, ';text-align:center;text-anchor:middle;fill:#000000;fill-opacity:1;stroke-width:0.251683;stroke-dasharray:none"
         x="127.33381"
         y="89.81739"
         id="tspan34" /><tspan
         sodipodi:role="line"
         style="font-style:normal;font-variant:normal;font-weight:normal;font-stretch:normal;font-family:'Times New Roman';-inkscape-font-specification:'Times New Roman, ';text-align:center;text-anchor:middle;fill:#000000;fill-opacity:1;stroke-width:0.251683;stroke-dasharray:none"
         x="127.33381"
         y="96.518379"
         id="tspan37">Citoyens</tspan><tspan
         sodipodi:role="line"
         style="font-style:normal;font-variant:normal;font-weight:normal;font-stretch:normal;font-family:'Times New Roman';-inkscape-font-specification:'Times New Roman, ';text-align:center;text-anchor:middle;fill:#000000;fill-opacity:1;stroke-width:0.251683;stroke-dasharray:none"
         x="127.33381"
         y="103.21936"
         id="tspan40" /></text>
    <text
       xml:space="preserve"
       style="font-style:normal;font-variant:normal;font-weight:normal;font-stretch:normal;font-size:3.95582px;font-family:'Times New Roman';-inkscape-font-specification:'Times New Roman, ';text-align:center;text-anchor:middle;fill:#000000;fill-opacity:1;stroke:#000000;stroke-width:0.22822"
       x="155.42778"
       y="91.03051"
       id="text44"
       transform="scale(1.1140454,0.89762952)"><tspan
         sodipodi:role="line"
         style="font-style:normal;font-variant:normal;font-weight:normal;font-stretch:normal;font-size:3.95582px;font-family:'Times New Roman';-inkscape-font-specification:'Times New Roman, ';text-align:center;text-anchor:middle;fill:#000000;fill-opacity:1;stroke-width:0.22822"
         x="155.42778"
         y="91.03051"
         id="tspan41" /><tspan
         sodipodi:role="line"
         style="font-style:normal;font-variant:normal;font-weight:normal;font-stretch:normal;font-size:3.95582px;font-family:'Times New Roman';-inkscape-font-specification:'Times New Roman, ';text-align:center;text-anchor:middle;fill:#000000;fill-opacity:1;stroke-width:0.22822"
         x="155.42778"
         y="95.975288"
         id="tspan42" /><tspan
         sodipodi:role="line"
         style="font-style:normal;font-variant:normal;font-weight:normal;font-stretch:normal;font-size:3.95582px;font-family:'Times New Roman';-inkscape-font-specification:'Times New Roman, ';text-align:center;text-anchor:middle;fill:#000000;fill-opacity:1;stroke-width:0.22822"
         x="155.42778"
         y="100.92006"
         id="tspan43">Organisations </tspan><tspan
         sodipodi:role="line"
         style="font-style:normal;font-variant:normal;font-weight:normal;font-stretch:normal;font-size:3.95582px;font-family:'Times New Roman';-inkscape-font-specification:'Times New Roman, ';text-align:center;text-anchor:middle;fill:#000000;fill-opacity:1;stroke-width:0.22822"
         x="155.42778"
         y="105.86484"
         id="tspan45">non-</tspan><tspan
         sodipodi:role="line"
         style="font-style:normal;font-variant:normal;font-weight:normal;font-stretch:normal;font-size:3.95582px;font-family:'Times New Roman';-inkscape-font-specification:'Times New Roman, ';text-align:center;text-anchor:middle;fill:#000000;fill-opacity:1;stroke-width:0.22822"
         x="155.42778"
         y="110.80961"
         id="tspan46"> gouvernementales</tspan><tspan
         sodipodi:role="line"
         style="font-style:normal;font-variant:normal;font-weight:normal;font-stretch:normal;font-size:3.95582px;font-family:'Times New Roman';-inkscape-font-specification:'Times New Roman, ';text-align:center;text-anchor:middle;fill:#000000;fill-opacity:1;stroke-width:0.22822"
         x="155.42778"
         y="115.75439"
         id="tspan44" /></text>
    <text
       xml:space="preserve"
       transform="scale(0.25128611)"
       id="text1"
       style="white-space:pre;shape-inside:url(#rect1);fill:#000000" />
    <path
       style="fill:#ffffff;stroke-width:0.761709"
       d="M 273.22596,542.39417 C 202.08694,515.10365 116.69756,482.34786 83.471784,469.60354 l -60.41051,-23.17148 0.01909,-145.50957 0.01909,-145.50956 189.633356,-72.631685 189.63335,-72.631686 4.61372,1.658427 c 2.53754,0.912135 87.96872,33.596394 189.84706,72.631686 l 185.23335,70.973258 0.009,145.52968 c 0.008,137.67476 -0.0859,145.56669 -1.74582,146.21534 -2.55022,0.99654 -374.46302,143.62744 -376.24969,144.29413 -0.8272,0.30867 -59.70865,-21.76739 -130.84766,-49.05791 z m 76.83154,2.93949 c 1.64755,-1.49103 1.91821,-1.49103 3.40923,0 2.37722,2.37722 7.07191,2.05748 8.93948,-0.60884 3.32761,-4.75082 0.68189,-9.80354 -5.13337,-9.80354 -2.71528,0 -3.61627,0.53925 -4.60693,2.75733 -2.78307,6.23121 -8.87221,8.29806 -10.95831,3.71959 -1.70538,-3.74291 0.003,-7.89524 3.41053,-8.29167 1.87664,-0.21831 3.00029,0.30373 3.77681,1.75466 1.67407,3.12803 3.04015,2.47922 3.04015,-1.44391 v -3.50932 h -5.32559 c -6.09954,0 -9.12405,2.04839 -10.18993,6.90126 -0.69545,3.16643 1.4139,8.54787 3.71312,9.47296 2.75897,1.11006 8.22761,0.58742 9.92481,-0.94852 z m 47.03666,-0.42492 c 1.55716,-1.55717 1.74262,-1.55166 2.76296,0.0822 0.88879,1.42319 2.60757,1.7613 9.17244,1.80435 7.37979,0.0484 9.70551,-0.72355 7.07603,-2.34866 -0.55147,-0.34083 -1.00267,-1.96907 -1.00267,-3.61832 0,-2.52387 0.26896,-2.84812 1.69874,-2.04799 1.04706,0.58597 1.72019,2.2398 1.75466,4.31115 l 0.0559,3.36049 7.51998,0.13277 c 4.13599,0.073 8.04381,-0.28728 8.68404,-0.80069 0.73089,-0.58609 1.40587,-0.54222 1.81384,0.1179 0.88575,1.43316 5.86745,1.33024 7.34954,-0.15185 0.66176,-0.66176 1.27408,-3.03055 1.36071,-5.26398 0.15401,-3.97021 0.17079,-3.94897 0.752,0.95253 l 0.59448,5.01332 8.27198,0.29121 c 6.90698,0.24317 8.27198,0.0364 8.27198,-1.25333 0,-0.8495 -0.4512,-1.54454 -1.00266,-1.54454 -0.55147,0 -1.00267,-1.16109 -1.00267,-2.58018 0,-1.91499 0.45117,-2.49329 1.75001,-2.24316 1.37218,0.26425 1.67916,1.15937 1.42186,4.14584 l -0.32814,3.80882 4.34345,-0.31233 4.34346,-0.31233 0.22647,-5.7537 0.22647,-5.7537 -18.01668,0.0727 c -9.90918,0.04 -18.27423,0.4894 -18.58902,0.99873 -0.65287,1.05637 -3.45247,-1.39932 -3.45247,-3.02836 0,-1.61466 -2.1268,-1.29143 -3.45508,0.52509 -0.97419,1.33228 -3.46008,1.5936 -14.88555,1.56479 -12.55535,-0.0317 -13.83375,0.13342 -15.10671,1.95083 -1.38166,1.97259 -1.3941,1.9722 -1.92574,-0.0608 -0.39318,-1.50357 -1.35768,-2.04621 -3.63695,-2.04621 -2.80181,0 -3.10186,-0.30135 -3.10186,-3.11527 0,-2.42877 -0.3495,-2.98115 -1.58601,-2.50666 -0.8723,0.33474 -1.95751,0.60861 -2.41157,0.60861 -0.45407,0 -0.66579,2.81999 -0.47048,6.26665 0.23932,4.22352 0.12659,5.1225 -0.34575,2.75733 -0.66083,-3.30897 -0.92983,-3.50933 -4.7115,-3.50933 -3.59459,0 -4.01649,0.26004 -4.06691,2.50666 -0.0309,1.37867 -0.5812,3.40906 -1.22284,4.51199 -0.95956,1.64944 -1.172,0.60724 -1.19708,-5.87259 -0.0262,-6.76441 -0.25466,-7.7919 -1.61649,-7.26932 -0.8723,0.33474 -1.93254,0.60861 -2.35607,0.60861 -0.42355,0 -0.54867,3.44991 -0.27807,7.66646 0.35878,5.59058 0.18225,7.47502 -0.65192,6.95947 -0.69096,-0.42703 -1.14392,-3.66128 -1.14392,-8.16779 0,-7.87811 -0.7161,-8.85642 -4.47225,-6.10985 -1.28015,0.93606 -1.49296,1.57008 -0.69297,2.06449 1.41655,0.87548 1.54668,11.26383 0.1519,12.12585 -3.11605,1.92583 0.43187,2.46281 15.22761,2.30474 13.64917,-0.14581 16.49574,-0.43884 17.89949,-1.84259 z M 149.9136,441.08815 l 5.02865,-0.50278 17.89437,-31.54754 17.89437,-31.54754 -19.38996,-31.04664 -19.38995,-31.04664 -37.12231,0.59469 c -25.482529,0.40822 -37.473,0.94912 -38.240764,1.72508 -1.502988,1.51903 -35.478779,61.57836 -35.478779,62.71619 0,0.49253 8.614054,14.6774 19.142343,31.52196 l 19.142343,30.62646 32.745527,-0.49523 c 18.01004,-0.27238 35.00841,-0.72149 37.77416,-0.99801 z m 177.40289,-0.31865 c 2.65632,-0.62915 4.69573,-3.85484 20.19837,-31.94738 l 17.24373,-31.24758 -18.69438,-31.0706 -18.69439,-31.0706 -36.09591,0.58158 c -19.85275,0.31987 -36.41174,0.86239 -36.79776,1.20558 -1.9182,1.70543 -34.86695,62.9141 -34.45069,63.99885 0.26562,0.69221 8.65618,14.77771 18.6457,31.30111 l 18.16274,30.04256 33.76396,-0.54686 c 18.57018,-0.30077 35.09356,-0.86176 36.71863,-1.24666 z m 214.62344,0.29792 5.01332,-0.5235 17.91764,-31.5141 17.91762,-31.5141 -19.39789,-31.05936 -19.39789,-31.05935 -37.12231,0.59469 c -25.40097,0.40691 -37.50262,0.95161 -38.32681,1.72508 -0.66248,0.62171 -9.09237,14.98729 -18.73309,31.9235 l -17.52858,30.79312 18.06502,28.86539 c 9.93576,15.87598 18.70102,29.86011 19.47836,31.07587 l 1.41335,2.21045 32.84397,-0.49709 c 18.06418,-0.2734 35.09996,-0.73267 37.85729,-1.0206 z m 186.49552,-0.99173 5.01332,-0.51133 19.05061,-30.68925 c 10.47784,-16.8791 19.05062,-31.1945 19.05062,-31.81201 0,-0.6175 -9.24958,-14.79119 -20.55461,-31.49708 l -20.55462,-30.37436 -19.46252,0.57443 c -10.70438,0.31594 -29.06165,0.57442 -40.79393,0.57442 h -21.3314 l -19.71281,31.54589 c -10.84205,17.35024 -19.55671,31.97477 -19.36593,32.49893 0.1908,0.52417 9.59648,14.50489 20.90152,31.06825 l 20.55461,30.11521 36.09591,-0.49089 c 19.85275,-0.26999 38.3519,-0.72099 41.10923,-1.00221 z m -184.99152,-163.63333 140.8743,-30.82329 0.25822,-62.32895 0.25824,-62.32895 -7.27689,-1.60301 C 673.55552,118.47651 609.65728,104.50418 535.56171,88.308546 L 400.8425,58.861936 261.33309,89.332566 c -76.73017,16.758844 -140.5246,30.708244 -141.7654,30.998644 l -2.25599,0.52801 0.004,62.39674 0.004,62.39674 140.11812,30.72098 c 77.06497,16.89655 141.24612,30.75946 142.62478,30.80648 1.37867,0.047 65.9001,-13.78497 143.38097,-30.7378 z"
       id="path2"
       transform="scale(0.25128611)" />
    <path
       style="fill:#ffffff;stroke-width:0.761709"
       d="M 266.20731,275.6867 C 192.31097,259.48701 129.47805,245.73111 126.5786,245.11802 l -5.27172,-1.11471 0.2584,-60.80214 0.2584,-60.80213 139.49392,-30.509896 139.49392,-30.509899 139.49288,30.472886 139.49288,30.472889 0.004,60.83147 0.004,60.83147 -6.76798,1.53599 c -3.72239,0.84479 -65.87503,14.43899 -138.11698,30.20932 -72.24195,15.77033 -132.02579,28.8385 -132.85299,29.04037 -0.8272,0.20188 -61.96464,-12.88725 -135.86098,-29.08694 z m 44.61855,-17.44153 c 0,-0.51891 -0.4512,-1.22234 -1.00266,-1.56317 -1.91899,-1.186 -0.91532,-3.01831 2.53931,-4.63585 l 3.47667,-1.62785 v 3.25974 c 0,4.41516 1.43277,5.29393 8.78148,5.38603 l 6.27484,0.0786 -0.65899,-4.12106 c -0.52515,-3.28411 -0.37409,-4.02383 0.74382,-3.64231 0.94713,0.32324 1.29591,1.66937 1.07373,4.14404 -0.31964,3.56022 -0.23199,3.66528 3.05813,3.66528 1.86296,0 3.90952,-0.52232 4.5479,-1.1607 0.83293,-0.83293 1.52767,-0.85615 2.46017,-0.0822 1.93537,1.60622 30.87077,1.66391 30.87077,0.0616 0,-0.95278 0.26738,-0.95762 1.2032,-0.0218 0.66176,0.66176 2.15071,1.2032 3.30879,1.2032 1.15808,0 2.64703,-0.54144 3.30879,-1.2032 1.55661,-1.5566 1.55661,-8.06896 0,-9.62557 -1.83643,-1.83643 -5.65397,-1.43455 -7.01077,0.73803 -1.16218,1.86095 -1.26479,1.86633 -2.48082,0.13022 -1.12666,-1.60855 -2.79659,-1.79504 -14.93607,-1.66808 -12.22173,0.12783 -13.8164,0.34648 -15.07431,2.06677 -1.36608,1.86822 -1.40672,1.86095 -1.40672,-0.25147 0,-2.11347 -0.30627,-2.16774 -10.77864,-1.91016 -5.92825,0.14582 -11.34264,0.61388 -12.03197,1.04015 -0.7883,0.48746 -1.25333,0.22162 -1.25333,-0.71653 0,-2.91399 -3.0135,-4.64278 -8.09293,-4.64278 -2.71793,0 -4.9417,0.4512 -4.9417,1.00266 0,0.55147 0.4512,1.00266 1.00266,1.00266 0.55704,0 1.00267,2.67378 1.00267,6.01599 0,3.34221 -0.44563,6.01598 -1.00267,6.01598 -0.55146,0 -1.00266,0.4512 -1.00266,1.00267 0,0.55146 1.80479,1.00266 4.01065,1.00266 2.20587,0 4.01066,-0.42457 4.01066,-0.94349 z m 76.35436,-7.32849 c -0.20036,-4.54959 -0.5402,-8.45807 -0.75518,-8.68551 -0.21499,-0.22745 -1.56672,0.12219 -3.00382,0.77698 -2.15197,0.98051 -2.39676,1.45101 -1.38755,2.66704 0.78744,0.94881 1.0698,3.62746 0.79005,7.49498 -0.42739,5.90861 -0.38827,6.01849 2.14273,6.01849 h 2.57808 z m 27.32111,6.51732 c -0.0551,-0.68933 -0.16795,-3.28373 -0.25067,-5.76532 -0.137,-4.11009 -0.37474,-4.51199 -2.66891,-4.51199 -2.3631,0 -2.48018,0.23972 -1.89731,3.88473 0.38503,2.40789 0.19895,4.14569 -0.48949,4.57116 -0.75042,0.46379 -1.11067,-0.79625 -1.11067,-3.88472 0,-4.20747 -0.19944,-4.57117 -2.50666,-4.57117 -2.00533,0 -2.50666,-0.50133 -2.50666,-2.50666 0,-1.37866 -0.564,-2.49975 -1.25333,-2.49131 -2.29727,0.0282 -4.05964,1.76823 -3.43623,3.39279 0.34277,0.89325 0.10906,1.60518 -0.52694,1.60518 -3.79663,0 -6.50007,7.93566 -3.66817,10.76755 1.65121,1.65121 20.45006,1.19755 20.31504,-0.49024 z m 18.88948,-2.82689 c -0.33019,-2.92941 -0.11483,-4.44242 0.63234,-4.44242 0.65493,0 1.13306,1.70569 1.13306,4.04211 0,4.35725 1.93328,6.11932 4.43549,4.04269 0.95992,-0.79667 1.60684,-0.83203 2.05173,-0.11218 1.11325,1.80128 5.36001,1.15275 6.90613,-1.05464 1.68054,-2.39931 1.33012,-7.86034 -0.584,-9.10121 -0.7033,-0.45593 -2.40671,-0.75996 -3.78538,-0.67566 -4.53664,0.27744 -6.01598,-0.12906 -6.01598,-1.6531 0,-2.04889 -1.28045,-1.8923 -2.6658,0.32598 -0.90537,1.44972 -2.15349,1.76185 -6.0065,1.50207 -8.53469,-0.57541 -9.23241,-0.11091 -9.23241,6.14636 v 5.46551 l 6.81602,-0.0215 6.81603,-0.0215 z m 28.41032,2.34202 0.7108,-2.23952 0.85952,2.32349 c 1.20656,3.26165 2.84473,2.30163 4.95533,-2.90398 l 1.81062,-4.46577 0.056,3.55946 c 0.0308,1.9577 0.59746,4.1009 1.25921,4.76265 1.60932,1.60932 5.4337,1.52723 7.00073,-0.15027 1.06136,-1.13619 1.48162,-1.13619 2.61781,0 1.82407,1.82406 5.72286,1.71094 7.65593,-0.22214 1.86013,-1.86013 2.0886,-7.53698 0.37242,-9.25316 -0.66176,-0.66176 -2.01535,-1.2032 -3.00799,-1.2032 -1.27667,0 -1.80479,-0.7653 -1.80479,-2.61536 0,-2.35197 -0.27748,-2.54571 -2.75528,-1.92382 -3.52794,0.88545 -3.89451,1.29845 -2.44186,2.7511 0.65256,0.65257 1.18648,2.03087 1.18648,3.0629 0,1.61061 -0.19935,1.67707 -1.40729,0.46913 -1.95901,-1.95902 -24.66198,-2.35939 -24.66198,-0.43493 0,0.71385 0.3967,1.72655 0.88155,2.25044 0.48484,0.52389 1.42222,2.64453 2.08308,4.71252 1.34237,4.20066 3.54901,4.92536 4.62968,1.52046 z M 432.96,244.39937 c -0.18585,-0.96507 -1.00235,-1.75467 -1.81445,-1.75467 -0.8121,0 -1.6286,0.7896 -1.81445,1.75467 -0.23709,1.23112 0.30429,1.75466 1.81445,1.75466 1.51016,0 2.05154,-0.52354 1.81445,-1.75466 z m -161.83005,-10.15609 14.94928,-0.62255 17.34272,-31.50006 c 9.5385,-17.32503 17.19586,-31.76339 17.01635,-32.08525 -0.17951,-0.32185 -8.54336,-14.23396 -18.58634,-30.91578 l -18.25998,-30.33059 -21.22564,0.13271 c -11.67409,0.073 -28.20453,0.41138 -36.7343,0.75199 l -15.50867,0.6193 -17.33225,31.51941 -17.33225,31.51942 4.19226,7.08315 c 2.30574,3.89573 10.6873,17.79912 18.62568,30.89642 l 14.43343,23.81327 21.73522,-0.12944 c 11.95436,-0.0712 28.46238,-0.4096 36.68449,-0.752 z m 308.85592,-5.33517 c 1.98782,-2.82126 33.64454,-60.91116 33.64454,-61.73756 0,-0.63935 -8.06575,-14.37513 -17.9239,-30.52397 l -17.9239,-29.36152 -13.91069,-0.25235 c -7.65087,-0.13879 -23.99657,0.0868 -36.32377,0.50133 l -22.41308,0.75368 -16.94148,30.46826 c -9.31781,16.75754 -16.94148,30.80408 -16.94148,31.21453 0,0.65218 28.43321,47.70365 34.52543,57.1329 l 2.26736,3.50933 35.86455,-0.70197 c 19.7255,-0.38609 35.95989,-0.83728 36.07642,-1.00266 z"
       id="path3"
       transform="scale(0.25128611)" />
    <path
       style="fill:#ffffff;stroke-width:0.761709"
       d="M 220.08476,522.03056 C 119.71809,483.53923 34.328711,450.80099 30.330588,449.27892 l -7.269314,-2.76739 V 300.91298 155.31445 l 3.75999,-1.34313 C 28.889258,153.23261 114.05304,120.63135 216.07411,81.524086 320.8729,41.352054 402.49578,10.591016 403.70204,10.813151 c 1.1743,0.216247 86.78928,32.838506 190.25551,72.493908 l 188.12042,72.100731 v 145.56665 145.56665 l -7.77064,2.99461 c -14.75496,5.68619 -368.73389,141.38715 -370.23371,141.93237 -0.8272,0.3007 -83.62218,-30.94617 -183.98886,-69.43751 z m 129.63058,23.35576 c 2.03409,-1.42474 2.38423,-1.41983 3.85819,0.0541 2.50836,2.50836 7.51035,1.57533 9.35958,-1.74587 1.37861,-2.47596 1.37859,-3.03869 -2.2e-4,-5.51465 -1.17413,-2.10842 -2.41156,-2.83048 -5.25806,-3.06816 -3.25079,-0.27145 -3.88213,0.0462 -4.98151,2.50666 -2.80985,6.28847 -8.88959,8.38027 -10.98572,3.77976 -1.70538,-3.74291 0.003,-7.89524 3.41053,-8.29167 1.87664,-0.21831 3.00029,0.30373 3.77681,1.75466 1.67407,3.12803 3.04015,2.47922 3.04015,-1.44391 v -3.50932 h -5.33988 c -5.8995,0 -8.96568,2.15091 -10.20868,7.16133 -0.70459,2.84014 1.52298,8.3184 3.74616,9.21289 2.64036,1.06234 7.42563,0.61498 9.58265,-0.89586 z m 47.37788,-0.47665 c 1.55841,-1.55841 1.74331,-1.55298 2.7639,0.0812 0.88879,1.42319 2.60757,1.7613 9.17244,1.80435 7.37979,0.0484 9.70551,-0.72355 7.07603,-2.34866 -0.55147,-0.34083 -1.00267,-1.96907 -1.00267,-3.61832 0,-2.52387 0.26896,-2.84812 1.69874,-2.04799 1.04706,0.58597 1.72019,2.2398 1.75466,4.31115 l 0.0559,3.36049 7.51998,0.13277 c 4.13599,0.073 8.04381,-0.28728 8.68404,-0.80069 0.73089,-0.58609 1.40587,-0.54222 1.81384,0.1179 0.88575,1.43316 5.86745,1.33024 7.34954,-0.15185 0.66176,-0.66176 1.27408,-3.03055 1.36071,-5.26398 0.15401,-3.97021 0.17079,-3.94897 0.752,0.95253 l 0.59448,5.01332 8.27198,0.29121 c 7.60141,0.26761 10.12712,-0.53032 7.26932,-2.29654 -0.55147,-0.34083 -1.00267,-1.75413 -1.00267,-3.14069 0,-1.85868 0.45976,-2.43246 1.75001,-2.18398 1.37218,0.26425 1.67916,1.15937 1.42186,4.14584 l -0.32814,3.80882 4.34345,-0.31233 4.34346,-0.31233 0.22647,-5.7537 0.22647,-5.7537 -18.01668,0.0727 c -9.90918,0.04 -18.27423,0.4894 -18.58902,0.99873 -0.65287,1.05637 -3.45247,-1.39932 -3.45247,-3.02836 0,-1.61466 -2.1268,-1.29143 -3.45508,0.52509 -0.97419,1.33228 -3.46008,1.5936 -14.88555,1.56479 -12.55535,-0.0317 -13.83375,0.13342 -15.10671,1.95083 -1.38166,1.97259 -1.3941,1.9722 -1.92574,-0.0608 -0.39318,-1.50357 -1.35768,-2.04621 -3.63695,-2.04621 -2.80181,0 -3.10186,-0.30135 -3.10186,-3.11527 0,-2.42877 -0.3495,-2.98115 -1.58601,-2.50666 -0.8723,0.33474 -1.95751,0.60861 -2.41157,0.60861 -0.45407,0 -0.66579,2.81999 -0.47048,6.26665 0.23932,4.22352 0.12659,5.1225 -0.34575,2.75733 -0.66083,-3.30897 -0.92983,-3.50933 -4.7115,-3.50933 -3.59459,0 -4.01649,0.26004 -4.06691,2.50666 -0.0309,1.37867 -0.5812,3.40906 -1.22284,4.51199 -0.96055,1.65116 -1.17197,0.63291 -1.19708,-5.76532 -0.0308,-7.84601 -0.32406,-8.50527 -3.02415,-6.79805 -1.14689,0.72515 -1.41333,2.5946 -1.15788,8.12413 0.23196,5.02099 0.001,6.97802 -0.76632,6.50357 -0.63653,-0.3934 -1.09812,-3.8148 -1.09812,-8.13949 0,-7.87811 -0.7161,-8.85642 -4.47225,-6.10985 -1.28015,0.93606 -1.49296,1.57008 -0.69297,2.06449 1.42614,0.8814 1.54212,11.26665 0.13554,12.13596 -2.88957,1.78585 1.60529,2.43717 15.79007,2.28802 13.14869,-0.13827 15.95214,-0.43474 17.35245,-1.83505 z m -247.19494,-103.82471 5.01332,-0.50598 17.90814,-31.54682 17.90815,-31.54683 -19.39648,-31.05709 -19.39648,-31.05709 -35.61024,0.54856 c -19.585626,0.30171 -36.566363,0.73918 -37.734966,0.97217 -2.716439,0.54159 -37.935342,61.9765 -36.979413,64.5059 0.336711,0.89094 8.971867,15.0218 19.189236,31.40191 l 18.577035,29.78204 32.754188,-0.4954 c 18.01481,-0.27248 35.01018,-0.72309 37.76751,-1.00137 z m 175.46621,0.0105 c 3.14501,-0.38135 4.45959,-1.18299 6.09059,-3.71409 4.40305,-6.83299 32.51198,-58.54105 32.51198,-59.80775 0,-0.73441 -8.23438,-15.0134 -18.29862,-31.73109 l -18.29862,-30.39579 -36.09591,0.5749 c -19.85275,0.31619 -36.4026,0.8557 -36.77746,1.19889 -0.68097,0.62349 -12.61887,22.049 -27.29805,48.99311 l -7.77894,14.27851 18.71418,31.04968 18.71418,31.04967 32.25301,-0.50487 c 17.73915,-0.27769 34.0578,-0.72371 36.26366,-0.99117 z m 216.57544,-0.028 5.01332,-0.5235 17.92451,-31.52616 17.92452,-31.52617 -19.42851,-31.04336 -19.42851,-31.04337 -35.59458,0.5317 c -19.57701,0.29244 -36.56382,0.72563 -37.74845,0.96264 -2.1775,0.43566 -3.47862,2.55412 -28.719,46.76034 l -9.55675,16.73777 18.03434,28.88344 c 9.91889,15.8859 18.67413,29.87815 19.4561,31.09391 l 1.42175,2.21045 32.84397,-0.49709 c 18.06418,-0.2734 35.09996,-0.73267 37.85729,-1.0206 z m 186.49552,-0.99941 5.01332,-0.519 17.20881,-27.76434 c 9.46485,-15.27039 18.15267,-29.38461 19.30628,-31.36494 l 2.09747,-3.6006 -20.81027,-30.82059 -20.81029,-30.82058 -18.54928,0.57844 c -10.20211,0.31815 -28.56617,0.57972 -40.80904,0.58128 l -22.25975,0.003 -17.91585,28.8266 c -9.85372,15.85462 -18.72675,30.21696 -19.71787,31.91632 l -1.802,3.08972 20.92166,30.68689 20.92167,30.6869 36.09591,-0.47996 c 19.85275,-0.26398 38.3519,-0.71352 41.10923,-0.99897 z m -184.99152,-163.64863 140.8743,-30.83578 0.25822,-62.29996 0.25823,-62.29997 -2.76489,-0.60506 c -1.52069,-0.33282 -65.42303,-14.3047 -142.0052,-31.048651 L 400.82427,58.886449 261.32398,89.3487 c -76.72516,16.75424 -140.51549,30.69811 -141.75629,30.98639 l -2.25599,0.52413 0.004,62.39674 0.004,62.39674 140.11812,30.72098 c 77.06497,16.89655 141.24612,30.75709 142.62478,30.80123 1.37867,0.0441 65.9001,-13.79585 143.38097,-30.75553 z"
       id="path4"
       transform="scale(0.25128611)" />
    <path
       style="fill:#ffffff;stroke-width:0.761709"
       d="m 240.02587,410.46699 -18.15721,-30.12956 16.99728,-30.83517 16.99728,-30.83518 34.75064,-0.66793 c 32.17601,-0.61845 34.84482,-0.54005 36.02195,1.05827 0.69922,0.94942 8.97536,14.49951 18.39142,30.1113 l 17.12011,28.38509 -16.14123,29.36948 c -8.87766,16.15321 -16.7026,30.07567 -17.38876,30.9388 -1.07185,1.34833 -6.11884,1.65134 -35.8409,2.15188 l -34.59338,0.58258 z m 81.25188,-27.69998 c -0.0779,-3.72239 0.0439,-4.87324 0.27075,-2.55745 0.28146,2.87372 0.9527,4.35821 2.11419,4.67568 2.63776,0.72097 14.58667,0.20851 15.98976,-0.68576 0.71655,-0.4567 1.25333,-0.34405 1.25333,0.26302 0,1.6721 5.69614,1.23845 7.50603,-0.57144 0.8983,-0.89831 1.38173,-2.28881 1.07428,-3.09 -0.30745,-0.8012 -0.55899,-2.77342 -0.55899,-4.38271 0,-2.5696 -0.35917,-2.92598 -2.94882,-2.92598 -1.62185,0 -3.25197,0.49051 -3.62249,1.09002 -0.48511,0.78493 -0.97877,0.78493 -1.76371,0 -1.48198,-1.48198 -6.22058,-1.37875 -7.49612,0.16331 -0.57019,0.68933 -1.23463,2.60692 -1.47653,4.26132 -0.35345,2.41725 -0.46933,2.17111 -0.59006,-1.25333 -0.13362,-3.79036 -0.41673,-4.26132 -2.56147,-4.26132 -2.24916,0 -2.37371,0.27993 -1.85273,4.16414 0.40225,2.99901 0.23528,3.96437 -0.59674,3.45015 -0.6354,-0.3927 -1.15527,-2.26656 -1.15527,-4.16414 v -3.45015 h -5.95913 c -5.02136,0 -6.20476,0.35068 -7.51998,2.22842 l -1.56085,2.22843 v -2.30018 c 0,-1.77108 -0.51894,-2.25815 -2.256,-2.11745 -3.39032,0.27463 -4.76265,0.0439 -4.76265,-0.80091 0,-0.41893 1.46639,-0.75733 3.25866,-0.752 2.23245,0.007 3.25866,-0.46395 3.25866,-1.49431 0,-1.05232 -1.27834,-1.59652 -4.25666,-1.81208 -3.69832,-0.26768 -4.40415,0.0156 -5.38118,2.15998 -1.62046,3.55652 -9.91411,4.45376 -9.91411,1.07254 0,-1.93435 -1.6969,-1.79352 -2.83214,0.23505 -0.76167,1.36102 -2.55172,1.63977 -10.06387,1.56718 -8.2794,-0.08 -9.27982,0.11502 -10.654,2.07694 -1.49975,2.14119 -1.5166,2.14228 -1.5166,0.0985 0,-1.84587 -0.62814,-2.07264 -5.8782,-2.12209 -6.26095,-0.059 -7.30061,0.28422 -8.74612,2.88714 -0.78152,1.40728 -1.10794,1.44431 -2.20983,0.25066 -0.74619,-0.80832 -0.85218,-1.40052 -0.25067,-1.40052 0.57321,0 1.0422,-1.51053 1.0422,-3.35674 0,-3.08472 -0.25847,-3.36408 -3.18957,-3.44742 -4.65191,-0.13227 -6.83707,1.3866 -6.83707,4.75234 0,2.22236 0.81158,3.39252 3.50932,5.05982 3.67702,2.27251 4.54977,4.01065 2.01383,4.01065 -0.82253,0 -2.05906,-0.9024 -2.74785,-2.00533 -1.82469,-2.92179 -2.7753,-2.46293 -2.7753,1.33963 0,3.19906 0.17222,3.3517 3.94868,3.49968 2.4626,0.0965 4.55459,-0.45118 5.55863,-1.45523 1.47816,-1.47815 1.75645,-1.47736 3.39959,0.01 2.06132,1.86547 4.71809,2.11246 5.69638,0.52957 0.48511,-0.78493 0.97877,-0.78493 1.7637,0 1.43519,1.43518 6.70495,1.40736 6.70495,-0.0354 0,-0.77898 0.38582,-0.80966 1.25333,-0.0997 1.90666,1.56048 43.86655,1.58583 43.86655,0.0265 0,-0.9394 0.26738,-0.94042 1.2032,-0.005 0.66176,0.66176 2.01535,1.20319 3.00799,1.20319 0.99264,0 1.8048,0.4512 1.8048,1.00267 0,0.55146 -0.4512,1.00266 -1.00267,1.00266 -0.55146,0 -1.00266,0.4512 -1.00266,1.00267 0,0.55146 1.48114,1.00266 3.29143,1.00266 h 3.29144 z m -57.07577,-12.28264 c 0,-0.81209 -0.7896,-1.62859 -1.75466,-1.81445 -1.23112,-0.23709 -1.75466,0.30429 -1.75466,1.81445 0,1.51016 0.52354,2.05155 1.75466,1.81445 0.96506,-0.18585 1.75466,-1.00235 1.75466,-1.81445 z m 32.08525,0 c 0,-0.81209 -0.7896,-1.62859 -1.75466,-1.81445 -1.23112,-0.23709 -1.75466,0.30429 -1.75466,1.81445 0,1.51016 0.52354,2.05155 1.75466,1.81445 0.96506,-0.18585 1.75466,-1.00235 1.75466,-1.81445 z"
       id="path5"
       transform="scale(0.25128611)" />
    <path
       style="fill:#ffffff;stroke-width:0.761709"
       d="M 61.950117,410.64796 43.185776,380.43543 60.718932,349.55272 78.252087,318.67 114.04764,318.01485 c 27.90521,-0.51073 36.054,-0.3807 36.96806,0.58992 2.04967,2.17651 36.48248,57.84131 36.48248,58.97835 0,0.59923 -7.78318,14.80947 -17.29595,31.57831 l -17.29596,30.4888 -20.55461,0.0123 c -11.30504,0.007 -27.5482,0.27909 -36.095909,0.60514 l -15.541293,0.5928 z m 55.110913,-12.31285 c 0.86463,-0.70666 1.25333,-0.68046 1.25333,0.0845 0,0.76723 5.09692,1.0935 16.54396,1.05905 14.77263,-0.0445 16.55641,-0.23055 16.66026,-1.73807 0.10412,-1.5113 0.16438,-1.50434 0.57486,0.0664 0.30495,1.16696 1.4414,1.75466 3.39301,1.75466 3.49128,0 3.58727,-0.34987 0.84757,-3.08957 -1.91329,-1.91328 -1.955,-2.23266 -0.50133,-3.83894 0.87206,-0.96362 1.58557,-2.05914 1.58557,-2.4345 0,-1.1393 -26.44719,-0.5317 -27.90035,0.64099 -0.94909,0.76591 -1.52779,0.75265 -2.02158,-0.0463 -0.42129,-0.68167 -3.75509,-1.08768 -8.52521,-1.03826 -8.65758,0.0897 -11.18032,1.41141 -10.40775,5.45286 0.24691,1.29162 0.0603,2.3484 -0.41469,2.3484 -0.47499,0 -0.86362,-1.85742 -0.86362,-4.12759 0,-3.64596 -0.23606,-4.06587 -2.02297,-3.59859 -1.11478,0.29153 -2.7028,-0.15081 -3.53728,-0.98529 -1.27834,-1.27834 -1.768563,-1.30349 -3.145929,-0.16141 -0.897391,0.7441 -3.253607,1.3529 -5.236034,1.3529 -2.887942,0 -3.633053,0.39861 -3.748497,2.00533 -0.269627,3.75262 -0.59357,4.01504 -1.237722,1.00266 -0.597115,-2.7924 -0.961372,-3.00799 -5.082223,-3.00799 h -4.439007 l -0.08937,4.75495 -0.08937,4.75494 18.575523,-0.0934 c 11.014039,-0.0554 19.085709,-0.51036 19.828849,-1.11773 z m -9.47235,-11.29305 c 0.10874,-0.54391 -0.59189,-1.14099 -1.55695,-1.32685 -1.09752,-0.21136 -1.75467,0.28042 -1.75467,1.31312 0,1.74442 2.96317,1.75671 3.31162,0.0137 z m -41.430507,-11.5158 c 0.485005,-0.78475 1.086339,-0.65582 1.983595,0.42531 1.827907,2.20249 5.682872,1.92093 7.407288,-0.54102 l 1.465625,-2.09247 0.664126,2.09247 c 0.468746,1.47689 1.505042,2.09247 3.522544,2.09247 5.050788,0 5.938047,-0.795 5.296872,-4.74609 -0.737796,-4.54651 1.10793,-3.70506 2.743488,1.25073 1.485579,4.50135 3.41346,4.44335 5.248684,-0.1579 l 1.457116,-3.65326 0.625037,3.12519 c 0.711523,3.55761 4.658702,5.2904 7.216202,3.16786 0.9854,-0.81781 1.49098,-0.86731 1.49098,-0.14598 0,0.7681 10.69723,1.06686 36.11151,1.00853 39.73878,-0.0912 38.03981,0.19964 37.27163,-6.3804 -0.39685,-3.39929 -0.529,-3.49532 -4.81036,-3.49532 -3.2447,0 -4.40228,-0.39548 -4.40228,-1.504 0,-1.9232 -0.9772,-1.91952 -2.39613,0.009 -0.83137,1.12997 -3.27085,1.53418 -9.63584,1.59661 -4.68746,0.046 -9.12104,0.57691 -9.8524,1.17985 -0.96949,0.79924 -1.52875,0.77424 -2.0643,-0.0923 -0.99707,-1.61329 -20.68667,-1.48224 -22.02344,0.14659 -0.52853,0.64399 -1.16834,2.2989 -1.42182,3.67756 -0.33985,1.84846 -0.49671,1.51972 -0.5974,-1.25198 l -0.13655,-3.75864 -27.52807,0.24932 -27.528071,0.24931 -0.565625,-2.25599 c -0.4804,-1.91607 -1.236704,-2.256 -5.019452,-2.256 -3.290545,0 -4.987793,0.57315 -6.498214,2.1944 -4.904095,5.26393 -0.249765,12.53001 7.37476,11.51307 2.147472,-0.28643 4.217695,-1.02754 4.600495,-1.64693 z"
       id="path6"
       transform="scale(0.25128611)" />
    <path
       style="fill:#ffffff;stroke-width:0.761709"
       d="M 319.34851,560.09076 C 273.57689,542.53848 188.97711,510.09896 131.34899,488.00292 73.720876,465.90688 25.781,447.5232 24.815936,447.15029 23.156002,446.5089 23.061274,438.61523 23.061274,300.93519 v -145.5371 l 16.293291,-6.18698 C 48.315875,145.80828 133.44196,113.2125 228.52365,76.776059 323.60533,40.339612 402.00642,10.527973 402.7483,10.527973 c 1.20101,0 48.35174,17.985111 278.56193,106.254297 34.74231,13.32119 71.62782,27.45161 81.96779,31.40091 l 18.79995,7.18056 V 300.91642 446.4691 l -3.75999,1.50363 c -3.90503,1.56163 -371.59075,142.53802 -374.24436,143.49108 -0.8272,0.29709 -38.9535,-13.82078 -84.72511,-31.37305 z m 30.41953,-14.74135 c 2.09875,-1.47003 2.43769,-1.47003 4.06204,0 2.40835,2.17952 5.71384,2.01632 8.13165,-0.40149 4.00453,-4.00453 1.24752,-10.02664 -4.59034,-10.02664 -2.82279,0 -3.70481,0.51684 -4.70548,2.75733 -2.58191,5.78082 -8.63653,8.22433 -10.72219,4.32723 -1.39264,-2.60218 -1.31289,-6.40854 0.16526,-7.88669 1.8642,-1.8642 5.62812,-1.42139 6.81812,0.80213 1.64451,3.07279 3.00799,2.39105 3.00799,-1.504 v -3.50932 h -4.8781 c -5.77391,0 -9.68249,2.55353 -10.64981,6.95769 -0.68293,3.10939 1.45019,8.50105 3.72551,9.41653 2.66243,1.07121 7.43369,0.60933 9.63535,-0.93277 z m 47.41432,-0.66473 c 0.86827,-1.55151 1.07892,-1.53845 2.79046,0.1731 1.43613,1.43613 3.44704,1.86631 8.96693,1.91826 6.66095,0.0627 9.53477,-0.86537 7.18219,-2.31934 -0.56046,-0.34638 -1.01902,-1.97918 -1.01902,-3.62843 0,-2.52387 0.26896,-2.84812 1.69874,-2.04799 1.04706,0.58597 1.72019,2.2398 1.75466,4.31115 l 0.0559,3.36049 7.51998,0.13277 c 4.13599,0.073 8.04381,-0.28728 8.68404,-0.80069 0.73089,-0.58609 1.40587,-0.54222 1.81384,0.1179 0.35737,0.57824 1.96086,1.05135 3.56331,1.05135 3.34829,0 4.90914,-2.1845 5.14694,-7.2034 0.11713,-2.47186 0.31001,-2.03872 0.752,1.68875 l 0.59448,5.01332 8.27198,0.29121 c 7.60141,0.26761 10.12712,-0.53032 7.26932,-2.29654 -0.55147,-0.34083 -1.00267,-1.75413 -1.00267,-3.14069 0,-1.85868 0.45976,-2.43246 1.75001,-2.18398 1.37218,0.26425 1.67916,1.15937 1.42186,4.14584 l -0.32814,3.80882 4.34345,-0.31233 4.34346,-0.31233 0.22647,-5.7537 0.22647,-5.7537 -18.01668,0.0727 c -9.90918,0.04 -18.27423,0.4894 -18.58902,0.99873 -0.65287,1.05637 -3.45247,-1.39932 -3.45247,-3.02836 0,-1.61466 -2.1268,-1.29143 -3.45508,0.52509 -0.97419,1.33228 -3.46008,1.5936 -14.88555,1.56479 -12.66006,-0.0319 -13.82563,0.12183 -15.13912,1.99709 l -1.42304,2.03169 -0.66412,-2.09248 c -0.47446,-1.49486 -1.50391,-2.09247 -3.60456,-2.09247 -2.5987,0 -2.94042,-0.34958 -2.94042,-3.00799 0,-3.28439 -0.26626,-3.47266 -2.91009,-2.05773 -1.44141,0.77142 -1.72327,2.04516 -1.49765,6.76798 0.20487,4.2886 0.0959,4.89534 -0.4145,2.3084 -0.65316,-3.31037 -0.9198,-3.50933 -4.70307,-3.50933 -3.59459,0 -4.01649,0.26004 -4.06691,2.50666 -0.0309,1.37867 -0.5812,3.40906 -1.22284,4.51199 -0.96055,1.65116 -1.17197,0.63291 -1.19708,-5.76532 -0.0168,-4.27385 -0.36889,-7.76374 -0.78249,-7.75529 -2.79655,0.0571 -3.55931,2.10303 -3.35774,9.00639 0.14162,4.84995 -0.13577,6.99408 -0.84788,6.55397 -0.5821,-0.35976 -1.05836,-3.75924 -1.05836,-7.5544 0,-7.43612 -0.77301,-8.75139 -4.09758,-6.97213 -1.56038,0.83508 -1.83536,1.44026 -1.02339,2.25223 1.39269,1.39269 1.46727,11.39959 0.0913,12.24999 -3.07434,1.90004 1.51225,2.53072 16.23255,2.23205 13.7572,-0.27914 16.1946,-0.56649 16.99911,-2.00407 z m -248.28675,-103.62047 6.01599,-0.532 17.89122,-31.50863 17.89121,-31.50864 -19.36954,-31.07208 -19.36954,-31.07208 -35.62025,0.60635 c -23.127948,0.39369 -36.464101,1.00329 -38.026402,1.7382 -2.481975,1.16751 -6.842905,8.27871 -26.590759,43.36052 -5.852902,10.39761 -10.413282,19.49985 -10.134176,20.22718 0.279104,0.72733 8.906159,14.81683 19.171232,31.30998 l 18.663769,29.98756 31.730636,-0.50218 c 17.45184,-0.2762 34.43782,-0.74158 37.74661,-1.03418 z m 176.70044,0.014 c 2.13413,-0.32349 4.05387,-1.5887 5.62598,-3.70785 3.219,-4.33905 32.74503,-58.33638 32.74503,-59.88422 0,-0.67453 -8.23438,-14.91254 -18.29862,-31.64002 l -18.29862,-30.41362 -34.59191,0.51794 c -19.02555,0.28485 -35.49431,0.70051 -36.59724,0.92366 -2.13834,0.43264 -2.54766,1.12054 -23.99775,40.33078 l -12.75606,23.31773 18.74477,31.02892 18.74476,31.02891 32.72005,-0.5056 c 17.99604,-0.27808 34.17785,-0.72656 35.95961,-0.99663 z m 215.34121,-0.0138 6.01599,-0.53181 17.86155,-31.51318 17.86155,-31.51317 -19.36555,-31.0661 -19.36554,-31.0661 -33.58925,0.52993 c -18.47408,0.29147 -35.48707,0.75921 -37.80663,1.03943 l -4.2174,0.50949 -17.99758,31.4805 -17.99757,31.48051 18.02917,28.87516 c 9.91603,15.88133 18.67184,29.87427 19.45734,31.09541 l 1.42816,2.22026 31.8349,-0.50425 c 17.50918,-0.27734 34.54207,-0.74357 37.85086,-1.03608 z m 187.49819,-1.00046 5.01332,-0.52446 18.96706,-30.61805 c 10.43188,-16.83992 18.96706,-31.17616 18.96706,-31.85832 0,-0.68215 -9.21198,-14.88103 -20.47105,-31.55306 l -20.47107,-30.31279 -18.54928,0.5688 c -10.20211,0.31285 -28.54808,0.57008 -40.76884,0.57164 l -22.21956,0.003 -17.95037,28.8266 c -9.87271,15.85462 -18.76383,30.21696 -19.75806,31.91632 l -1.80768,3.08972 20.92166,30.67566 20.92167,30.67566 36.09591,-0.46805 c 19.85275,-0.25743 38.3519,-0.70406 41.10923,-0.9925 z M 502.83603,285.23126 c 52.94066,-11.551 115.4317,-25.19802 138.86897,-30.32671 l 42.61323,-9.3249 0.25825,-62.37931 c 0.14204,-34.30863 0.0786,-62.37932 -0.14095,-62.37932 -0.34064,0 -204.40228,-44.542057 -263.63774,-57.546178 l -19.87308,-4.36279 -72.87335,15.9271 c -67.83847,14.826683 -96.59482,21.1143 -142.05718,31.060998 -9.92637,2.17179 -26.16953,5.70763 -36.0959,7.85742 -9.92638,2.14978 -21.31915,4.65469 -25.31727,5.56644 l -7.26931,1.65775 0.007,62.33546 0.007,62.33548 54.88875,11.96519 c 30.18881,6.58085 93.46625,20.44027 140.61653,30.7987 62.32218,13.69154 86.82278,18.69467 89.73843,18.325 2.20586,-0.27968 47.32575,-9.95933 100.26641,-21.51033 z"
       id="path7"
       transform="scale(0.25128611)" />
    <path
       style="fill:#ffffff;stroke-width:0.761709"
       d="m 632.76927,410.29273 c -11.16067,-16.32331 -20.37104,-29.9226 -20.46749,-30.22064 -0.0965,-0.29803 8.39741,-14.30035 18.87525,-31.11626 l 19.05062,-30.57437 19.05062,-0.0204 c 10.47784,-0.0113 28.09083,-0.31336 39.13998,-0.67136 l 20.08938,-0.65092 20.26785,29.64327 c 11.14733,16.3038 20.26786,29.97679 20.26786,30.38443 0,0.40764 -8.45998,14.41867 -18.79995,31.13563 l -18.79995,30.39447 -22.05861,0.0376 c -12.13224,0.0207 -29.7682,0.33002 -39.19103,0.68747 l -17.13242,0.64991 z m 2.33641,-11.3397 c 0.8723,-0.33474 1.586,-1.15899 1.586,-1.83168 0,-0.80263 1.09018,-1.06306 3.17137,-0.75761 2.29249,0.33647 3.54288,-0.0426 4.51199,-1.36796 1.20469,-1.64751 1.34062,-1.66148 1.34062,-0.13778 0,1.34711 0.94975,1.69564 4.62069,1.69564 4.52391,0 4.60758,-0.0577 3.99527,-2.75733 -0.59406,-2.61913 -0.54926,-2.65978 0.89397,-0.81102 0.83566,1.07046 1.51937,2.31126 1.51937,2.75732 0,1.7846 2.9177,0.66976 3.56228,-1.36113 l 0.68941,-2.17215 1.64786,2.18461 1.64785,2.18461 45.35684,-0.084 45.35684,-0.084 v -3.88249 -3.8825 l -6.26665,0.0664 c -3.44665,0.0365 -6.83065,0.51749 -7.51998,1.06877 -0.93885,0.75083 -1.25333,0.34257 -1.25333,-1.6271 0,-2.10854 -0.47767,-2.62944 -2.41124,-2.62944 -2.22941,0 -2.38189,0.32138 -2.02187,4.26133 0.27969,3.0608 0.17109,3.55513 -0.38548,1.75466 -0.59787,-1.93407 -1.56549,-2.58255 -4.23603,-2.8389 -1.90363,-0.18273 -3.76911,-0.83051 -4.1455,-1.43952 -0.49242,-0.79675 -1.091,-0.76979 -2.13437,0.0961 -0.82656,0.68597 -4.73883,1.23723 -9.09882,1.28205 -4.20683,0.0432 -7.91526,0.5098 -8.24096,1.03678 -0.37555,0.60766 -1.01891,0.60399 -1.75874,-0.01 -0.71287,-0.59164 -15.98371,-0.90303 -39.2653,-0.80069 l -38.09873,0.16748 -0.62503,4.51199 c -0.34377,2.48159 -0.42994,4.85038 -0.1915,5.26398 0.52064,0.90308 5.53194,0.99576 7.75317,0.1434 z m 64.35884,-21.03313 c -0.40528,-1.05614 0.3456,-1.41954 2.93313,-1.41954 2.42298,0 3.47785,-0.45618 3.47785,-1.504 0,-1.01044 -1.01062,-1.50399 -3.07961,-1.50399 -1.69378,0 -3.73364,-0.65404 -4.53301,-1.45341 -1.53159,-1.53158 -12.89938,-1.62613 -15.32429,-0.12745 -0.66818,0.41296 -1.86695,0.20965 -2.66395,-0.4518 -1.63244,-1.35481 -8.48971,-0.48617 -8.48971,1.07543 0,0.52647 0.45119,0.95723 1.00266,0.95723 0.55147,0 1.00266,0.90239 1.00266,2.00532 0,1.10293 -0.47782,2.00533 -1.06183,2.00533 -0.58402,0 -0.8031,0.41866 -0.48686,0.93035 0.31624,0.51169 6.69335,0.92488 14.17134,0.91821 11.31082,-0.0101 13.50478,-0.25076 13.05162,-1.43168 z m -34.66126,-14.98898 c 1.45435,-1.31616 6.62413,-1.54455 35.91612,-1.58667 18.81947,-0.0271 34.44445,-0.41686 34.72216,-0.86621 0.27772,-0.44936 0.22496,-2.21695 -0.11725,-3.92798 -0.52277,-2.61386 -1.08283,-3.11098 -3.50485,-3.11098 -2.55087,0 -2.90113,0.37507 -3.04313,3.25866 l -0.16045,3.25866 -0.41057,-3.34133 -0.41057,-3.34132 -8.20228,0.18302 c -11.12108,0.24814 -11.60156,0.19898 -9.71466,-0.99395 1.13051,-0.71474 1.21303,-1.22814 0.33803,-2.10314 -1.45701,-1.45701 -3.65664,-0.20079 -2.93613,1.67683 0.30149,0.78569 -0.0727,1.40257 -0.85076,1.40257 -0.76393,0 -1.59577,-0.56399 -1.84852,-1.25333 -0.36765,-1.00266 -0.72526,-1.00266 -1.78809,0 -0.73069,0.68934 -3.04308,1.25333 -5.13865,1.25333 -3.24234,0 -3.83047,0.33619 -3.94667,2.256 l -0.13654,2.25599 -0.43453,-2.25599 c -0.33272,-1.72747 -1.12289,-2.256 -3.37278,-2.256 -2.63065,0 -2.93825,0.3324 -2.93825,3.17511 0,4.48826 -0.84219,3.10699 -1.20266,-1.97249 -0.16573,-2.33545 -0.75254,-4.12545 -1.304,-3.97778 -0.55147,0.14768 -0.94,0.8325 -0.86341,1.52183 0.16717,1.50456 1.32526,1.41822 -17.154,1.27889 -11.61273,-0.0875 -15.37455,-0.44361 -16.62291,-1.57336 -0.88742,-0.8031 -3.25956,-1.46019 -5.27142,-1.46019 -4.24075,0 -7.33789,3.46753 -6.22605,6.97062 0.94991,2.9929 3.25482,3.85945 10.2639,3.85876 4.38192,-4.2e-4 6.71534,0.47673 7.84226,1.60366 2.03257,2.03256 6.30746,2.06609 8.51666,0.0668 z"
       id="path8"
       transform="scale(0.25128611)" />
    <path
       style="fill:#ffffff;stroke-width:0.761709"
       d="m 632.76927,410.29273 c -11.16067,-16.32331 -20.33217,-29.97352 -20.38111,-30.33379 -0.0489,-0.36028 8.44492,-14.37031 18.87525,-31.13342 l 18.96424,-30.47836 19.05062,-0.003 c 10.47784,-0.002 28.11104,-0.29686 39.18489,-0.65566 l 20.13428,-0.65237 20.34121,29.81059 c 16.33486,23.93918 20.16981,30.18404 19.47096,31.70662 -0.47865,1.04281 -8.99184,14.97908 -18.91822,30.9695 l -18.04795,29.07348 -22.05861,0.0378 c -12.13224,0.0208 -29.7682,0.33027 -39.19103,0.68772 l -17.13242,0.64991 z m 2.33641,-11.3397 c 0.8723,-0.33474 1.586,-1.15899 1.586,-1.83168 0,-0.80263 1.09018,-1.06306 3.17137,-0.75761 2.29249,0.33647 3.54288,-0.0426 4.51199,-1.36796 1.20469,-1.64751 1.34062,-1.66148 1.34062,-0.13778 0,1.34711 0.94975,1.69564 4.62069,1.69564 4.52391,0 4.60758,-0.0577 3.99527,-2.75733 -0.59406,-2.61913 -0.54926,-2.65978 0.89397,-0.81102 0.83566,1.07046 1.51937,2.31126 1.51937,2.75732 0,1.7846 2.9177,0.66976 3.56228,-1.36113 l 0.68941,-2.17215 1.64786,2.18461 1.64785,2.18461 45.35684,-0.084 45.35684,-0.084 v -3.88249 -3.8825 l -6.26665,0.0664 c -3.44665,0.0365 -6.83065,0.51749 -7.51998,1.06877 -0.9405,0.75215 -1.25333,0.32862 -1.25333,-1.69684 0,-2.22553 -0.39582,-2.64294 -2.25567,-2.37877 -1.95066,0.27708 -2.22857,0.86271 -2.05529,4.33106 0.15633,3.12911 0.0374,3.45969 -0.54106,1.504 -0.57459,-1.94257 -1.52032,-2.58143 -4.2026,-2.8389 -1.90363,-0.18273 -3.76911,-0.83051 -4.1455,-1.43952 -0.49332,-0.79821 -1.08455,-0.77514 -2.11813,0.0827 -0.79164,0.657 -4.75515,1.23571 -8.84973,1.29214 -4.07877,0.0562 -7.93977,0.52884 -8.58,1.05027 -0.73282,0.59683 -1.38433,0.59166 -1.75863,-0.014 -0.69405,-1.12299 -74.6833,-1.46785 -76.38814,-0.35603 -1.20214,0.78397 -2.54926,8.76479 -1.63396,9.6801 0.74977,0.74976 5.67338,0.72147 7.66831,-0.044 z m 64.00184,-21.19934 c -0.16233,-0.81168 0.98595,-1.25333 3.25866,-1.25333 2.45096,0 3.50932,-0.45359 3.50932,-1.504 0,-1.04342 -1.04908,-1.50399 -3.42577,-1.50399 -1.88417,0 -3.60784,-0.54623 -3.83038,-1.21385 -0.48901,-1.46704 -12.43076,-1.91164 -15.11721,-0.56282 -1.18865,0.5968 -2.3138,0.50231 -3.24767,-0.27273 -1.61458,-1.33999 -8.46954,-0.45602 -8.46954,1.09217 0,0.52647 0.45119,0.95723 1.00266,0.95723 0.55147,0 1.00266,0.90239 1.00266,2.00532 0,1.10293 -0.47782,2.00533 -1.06183,2.00533 -0.58402,0 -0.79448,0.43261 -0.4677,0.96135 0.9465,1.53147 27.15647,0.83765 26.8468,-0.71068 z m -34.30426,-14.82277 c 1.45435,-1.31616 6.62413,-1.54455 35.91612,-1.58667 18.81947,-0.0271 34.44445,-0.41686 34.72216,-0.86621 0.27772,-0.44936 0.22496,-2.21695 -0.11725,-3.92798 -0.52277,-2.61386 -1.08283,-3.11098 -3.50485,-3.11098 -2.55087,0 -2.90113,0.37507 -3.04313,3.25866 l -0.16045,3.25866 -0.41057,-3.34133 -0.41057,-3.34132 -8.20228,0.18302 c -11.12108,0.24814 -11.60156,0.19898 -9.71466,-0.99395 1.13051,-0.71474 1.21303,-1.22814 0.33803,-2.10314 -1.45701,-1.45701 -3.65664,-0.20079 -2.93613,1.67683 0.30149,0.78569 -0.0727,1.40257 -0.85076,1.40257 -0.76393,0 -1.59577,-0.56399 -1.84852,-1.25333 -0.36765,-1.00266 -0.72526,-1.00266 -1.78809,0 -0.73069,0.68934 -3.04308,1.25333 -5.13865,1.25333 -3.24234,0 -3.83047,0.33619 -3.94667,2.256 l -0.13654,2.25599 -0.44228,-2.31511 c -0.35045,-1.83449 -0.99763,-2.25081 -3.11735,-2.00533 -2.05611,0.23811 -2.82273,1.00579 -3.31321,3.31778 l -0.63813,3.00799 -0.23743,-3.50932 c -0.13058,-1.93013 -0.16419,-4.07333 -0.0747,-4.76266 0.0895,-0.68933 -0.5821,-1.25333 -1.49247,-1.25333 -1.05938,0 -1.44747,0.54141 -1.07809,1.504 0.68285,1.77948 1.88008,1.67096 -16.876,1.52955 -11.61273,-0.0875 -15.37455,-0.44361 -16.62291,-1.57336 -0.88742,-0.8031 -3.25956,-1.46019 -5.27142,-1.46019 -4.24075,0 -7.33789,3.46753 -6.22605,6.97062 0.94991,2.9929 3.25482,3.85945 10.2639,3.85876 4.38192,-4.2e-4 6.71534,0.47673 7.84226,1.60366 2.03257,2.03256 6.30746,2.06609 8.51666,0.0668 z"
       id="path9"
       transform="scale(0.25128611)" />
    <path
       style="fill:#ffffff;stroke-width:0.761709"
       d="M 325.86582,562.6088 C 248.76379,533.05887 28.091351,448.4304 24.815936,447.15535 23.155978,446.50916 23.061673,438.61759 23.068679,300.94261 l 0.0074,-145.52968 138.610901,-53.08484 c 76.23599,-29.196656 161.34926,-61.795771 189.1406,-72.442474 27.79134,-10.646704 51.15277,-19.357643 51.91429,-19.357643 0.76153,0 44.80059,16.635442 97.8646,36.967648 53.06399,20.332207 138.10306,52.916849 188.97574,72.410319 l 92.49576,35.44267 v 145.59308 145.59309 l -10.2773,3.99545 c -10.52929,4.09343 -47.14322,18.14059 -131.09833,50.29668 -26.1946,10.03293 -53.26653,20.40857 -60.15984,23.05696 -6.89332,2.6484 -31.03246,11.8983 -53.64253,20.55531 -22.61008,8.65702 -49.68201,19.03998 -60.15985,23.07323 -18.47017,7.10977 -59.61874,22.83261 -62.6665,23.94484 -0.8272,0.30187 -36.02071,-12.67993 -78.2078,-28.84845 z m 23.90222,-17.25939 c 2.09875,-1.47003 2.43769,-1.47003 4.06204,0 0.97473,0.88211 2.7519,1.60384 3.94928,1.60384 2.72867,0 6.1877,-3.36305 6.1877,-6.01599 0,-2.75273 -3.49634,-6.01598 -6.4457,-6.01598 -2.47816,0 -5.58627,2.32136 -5.58627,4.17223 0,1.67362 -4.34401,4.7825 -6.73271,4.81839 -3.68162,0.0553 -5.90451,-6.98164 -3.0934,-9.79275 1.87502,-1.87502 5.62948,-1.41887 6.83315,0.83022 1.43681,2.68472 2.99296,1.59671 2.99296,-2.09259 0,-2.85183 -0.15756,-2.94882 -4.79022,-2.94882 -5.4107,0 -8.88972,1.93753 -10.34312,5.76027 -1.17627,3.09381 0.45407,8.80189 2.92591,10.24413 2.56938,1.49915 7.49022,1.22324 10.04038,-0.56295 z m 46.91748,-0.60499 c 1.44753,-1.44752 1.74302,-1.43092 3.36278,0.18884 1.34981,1.34981 3.48284,1.79188 8.89145,1.84278 6.66095,0.0627 9.53477,-0.86537 7.18219,-2.31934 -0.56046,-0.34638 -1.01902,-1.97918 -1.01902,-3.62843 0,-2.52387 0.26896,-2.84812 1.69874,-2.04799 1.04706,0.58597 1.72019,2.2398 1.75466,4.31115 l 0.0559,3.36049 7.01865,0.11088 c 3.86025,0.061 7.78086,-0.27864 8.71246,-0.75471 1.01797,-0.52022 1.94174,-0.46444 2.31517,0.13979 0.95274,1.54157 5.18413,1.19432 6.9487,-0.57025 0.86659,-0.86658 1.6465,-3.23537 1.73313,-5.26398 0.13671,-3.20085 0.23611,-3.02572 0.752,1.32495 l 0.59448,5.01332 8.27198,0.29121 c 7.60141,0.26761 10.12712,-0.53032 7.26932,-2.29654 -0.55147,-0.34083 -1.00267,-1.75413 -1.00267,-3.14069 0,-1.86556 0.4562,-2.4302 1.75466,-2.17175 1.37684,0.27406 1.68228,1.16679 1.41853,4.14601 l -0.33613,3.79675 4.34679,-0.3125 4.34679,-0.31249 0.22658,-5.75814 0.22659,-5.75813 -17.35799,0.0826 c -9.54689,0.0454 -17.95641,0.45245 -18.68781,0.90448 -1.40469,0.86815 -4.0126,-1.03951 -4.0126,-2.93517 0,-1.51337 -1.0571,-1.33582 -3.11045,0.52243 -1.42465,1.2893 -4.3068,1.59843 -14.96987,1.60563 -11.23373,0.008 -13.46761,0.271 -14.96076,1.76414 -1.67186,1.67187 -1.8103,1.66703 -2.91486,-0.10163 -0.63779,-1.02127 -2.2838,-1.85686 -3.65779,-1.85686 -2.10729,0 -2.49816,-0.47064 -2.49816,-3.00799 0,-3.28439 -0.26626,-3.47266 -2.91009,-2.05773 -1.40293,0.75083 -1.73163,2.06601 -1.56615,6.26665 0.1152,2.92401 0.013,4.07703 -0.22711,2.56228 -0.48222,-3.04228 -3.6311,-4.43543 -7.35428,-3.25374 -1.59631,0.50666 -2.06003,1.2957 -1.74133,2.96294 0.23892,1.2498 -0.16816,3.09642 -0.90463,4.10361 -1.1596,1.58584 -1.33904,0.79786 -1.33904,-5.88038 0,-4.24139 -0.1887,-7.71162 -0.41932,-7.71162 -2.94028,0 -3.59133,1.5752 -3.59133,8.68909 0,4.72593 -0.36848,7.24414 -1.00267,6.8522 -0.55146,-0.34083 -1.00266,-3.72482 -1.00266,-7.51998 0,-7.43612 -0.77301,-8.75139 -4.09758,-6.97213 -1.56038,0.83508 -1.83536,1.44026 -1.02339,2.25223 1.44324,1.44323 1.44373,11.41414 6e-4,12.30603 -2.78484,1.72113 2.63324,2.42456 16.42478,2.13244 11.87618,-0.25156 15.12845,-0.62848 16.40073,-1.90076 z m -247.78991,-103.68021 6.01599,-0.532 17.87445,-31.47916 17.87445,-31.47917 -19.37705,-31.1194 -19.37706,-31.1194 -33.59064,0.63425 c -18.474849,0.34883 -35.384565,0.92409 -37.577143,1.27834 -3.851653,0.62231 -4.227784,1.05031 -11.118931,12.65243 -14.369891,24.19354 -28.531033,50.11371 -28.055706,51.35239 0.26844,0.69955 8.912288,14.78871 19.208551,31.30925 l 18.720477,30.03734 31.693312,-0.50143 c 17.43133,-0.27579 34.40051,-0.74084 37.7093,-1.03344 z m 157.1683,0.52136 c 9.78889,-0.0472 19.03846,-0.41592 20.55461,-0.81933 1.60915,-0.42816 3.84251,-2.37449 5.3653,-4.67575 5.38601,-8.13945 32.1016,-57.7217 31.79821,-59.01519 -0.17397,-0.74166 -8.43788,-14.92552 -18.36426,-31.51971 l -18.04795,-30.17127 -32.58658,0.52452 c -41.31251,0.66497 -40.05123,0.51087 -42.73448,5.2212 -1.16963,2.05321 -8.97834,16.26518 -17.35272,31.58213 l -15.22613,27.84903 18.85671,31.19428 18.85671,31.19429 15.5413,-0.63918 c 8.54771,-0.35154 23.55038,-0.6778 33.33928,-0.72502 z m 233.87069,-0.52999 7.01865,-0.54457 17.85023,-31.52052 17.85023,-31.52051 -19.35423,-31.05542 -19.35422,-31.05542 -32.58659,0.53275 c -39.98502,0.65371 -42.25269,0.84679 -44.07578,3.75285 -0.76268,1.21573 -8.94398,15.38468 -18.18066,31.48654 l -16.79397,29.27613 7.75837,12.33443 c 4.26711,6.78395 13.0641,20.78224 19.54888,31.10732 l 11.79052,18.77288 30.75497,-0.51095 c 16.91522,-0.28101 33.91334,-0.75599 37.7736,-1.05551 z m 186.49552,-0.99956 7.01865,-0.54164 16.8253,-27.24569 c 9.25392,-14.98513 17.92904,-29.10287 19.27805,-31.37275 l 2.45275,-4.12707 -20.78205,-30.78779 -20.78205,-30.78778 -18.54928,0.57077 c -10.20211,0.31393 -28.54482,0.57205 -40.76158,0.57361 l -22.2123,0.003 -19.70136,31.6773 c -10.83574,17.42252 -19.56496,32.01073 -19.39826,32.41825 0.1667,0.40753 9.55267,14.32305 20.85771,30.92339 l 20.55461,30.18243 34.09058,-0.4721 c 18.74982,-0.25966 37.24897,-0.71585 41.10923,-1.01376 z M 475.11297,291.24232 C 515.72805,282.4015 579.4145,268.51316 616.6384,260.37933 l 67.67983,-14.78877 0.25825,-62.38477 c 0.14204,-34.31162 0.0302,-62.38477 -0.24854,-62.38477 -0.47435,0 -89.73732,-19.47869 -224.94555,-49.086926 L 400.8888,58.92502 259.38232,89.873021 c -77.82856,17.021399 -141.63683,30.947999 -141.79614,30.947999 -0.15932,0 -0.17345,28.08348 -0.0314,62.40773 l 0.25826,62.40773 49.13054,10.7592 c 27.02179,5.91756 89.51283,19.54484 138.86897,30.28284 49.35614,10.73799 90.64083,19.72202 91.74376,19.96452 1.10293,0.24248 2.38912,0.49322 2.8582,0.55719 0.46908,0.064 34.0834,-7.11709 74.69847,-15.95791 z"
       id="path11"
       transform="scale(0.25128611)" />
  </g>
</svg>
